<?xml version="1.0" encoding="UTF-8"?>
<svg version="1.1" xmlns="http://www.w3.org/2000/svg" width="150" height="150">
<path d="M0 0 C0.6931279 0.35576111 1.3862558 0.71152222 2.10038757 1.07806396 C3.29236504 1.68439667 3.29236504 1.68439667 4.50842285 2.30297852 C5.35434494 2.74148132 6.20026703 3.17998413 7.07182312 3.6317749 C7.95581284 4.08461853 8.83980255 4.53746216 9.75057983 5.00402832 C11.6188596 5.96277319 13.4855932 6.9245362 15.35087585 7.88909912 C18.18445557 9.35370034 21.02316412 10.80793901 23.86283875 12.26068115 C25.68281568 13.19626563 27.50248711 14.13244469 29.32182312 15.0692749 C30.16167252 15.49968079 31.00152191 15.93008667 31.86682129 16.37353516 C33.4625257 17.20071021 35.0499186 18.04416875 36.62747192 18.90545654 C38.87912659 20.1446429 38.87912659 20.1446429 41.23602295 21.14129639 C43.54717806 22.27384853 45.1497739 23.22003127 46.89604187 25.1161499 C48.04537098 28.91997287 47.94748014 32.57412558 47.85307312 36.5223999 C47.85361191 37.63868774 47.8541507 38.75497559 47.85470581 39.90509033 C47.84700802 42.26887753 47.81968969 44.63267043 47.7742157 46.99603271 C47.70925822 50.57666272 47.71253652 54.15223924 47.72612 57.7333374 C47.66697698 72.75316547 46.81614426 84.94286102 37.02104187 96.9911499 C36.58179382 97.53231445 36.14254578 98.073479 35.68998718 98.63104248 C34.44661146 100.14381627 33.17240932 101.63110651 31.89604187 103.1161499 C31.04912781 104.11581787 31.04912781 104.11581787 30.18510437 105.13568115 C22.10278613 113.89494483 7.55463736 125.19310148 -4.47505188 126.4755249 C-8.73238773 126.05391575 -11.99470383 124.70012562 -15.72895813 122.7411499 C-16.42045959 122.38609375 -17.11196106 122.0310376 -17.82441711 121.66522217 C-24.88172966 117.9126078 -31.04099466 113.29582449 -37.10395813 108.1161499 C-38.11522766 107.25763428 -38.11522766 107.25763428 -39.14692688 106.3817749 C-48.07303703 98.12971883 -56.01860912 86.39910569 -57.45324707 74.12869263 C-57.56244108 70.96707381 -57.5550072 67.82980709 -57.49458313 64.66693115 C-57.48892334 63.52830124 -57.48326355 62.38967133 -57.47743225 61.21653748 C-57.45524392 57.62012659 -57.40507957 54.02475389 -57.35395813 50.4286499 C-57.33387051 47.97358628 -57.31562373 45.51850687 -57.29927063 43.06341553 C-57.25543685 37.0806462 -57.18870269 31.09847225 -57.10395813 25.1161499 C-56.44202454 24.76012695 -55.78009094 24.404104 -55.09809875 24.03729248 C-53.0903406 22.95724158 -51.0827929 21.87679942 -49.07539368 20.79608154 C-46.74448182 19.54218571 -44.41259845 18.29009432 -42.07978821 17.03973389 C-36.09399535 13.82837731 -30.13116825 10.58503421 -24.20942688 7.2567749 C-23.1291925 6.65502441 -22.04895813 6.05327393 -20.93598938 5.43328857 C-18.8708907 4.28096992 -16.81202927 3.11738731 -14.76020813 1.94158936 C-13.82563782 1.4229834 -12.8910675 0.90437744 -11.92817688 0.37005615 C-11.11437561 -0.09070313 -10.30057434 -0.5514624 -9.46211243 -1.02618408 C-5.98594936 -2.2904724 -3.35160247 -1.40797202 0 0 Z M-8.22846985 5.80023193 C-8.98917786 6.23706299 -9.74988586 6.67389404 -10.53364563 7.1239624 C-11.40158752 7.6108252 -12.26952942 8.09768799 -13.16377258 8.5993042 C-14.09278381 9.14111328 -15.02179504 9.68292236 -15.97895813 10.2411499 C-17.94870367 11.35497343 -19.91876563 12.46823755 -21.88911438 13.58099365 C-22.90634583 14.16219971 -23.92357727 14.74340576 -24.97163391 15.34222412 C-30.08035402 18.23544004 -35.25115759 21.01314132 -40.41645813 23.8036499 C-42.26785408 24.80546047 -44.11821528 25.80918713 -45.96723938 26.81536865 C-46.74365784 27.23648926 -47.52007629 27.65760986 -48.32002258 28.0914917 C-50.06589325 28.99109421 -50.06589325 28.99109421 -51.10395813 30.1161499 C-51.20395631 31.51521645 -51.23476928 32.9193262 -51.23677063 34.32196045 C-51.23926819 35.21767258 -51.24176575 36.1133847 -51.24433899 37.03623962 C-51.2227924 41.1921026 -51.18932637 45.34752081 -51.13667297 49.50311279 C-51.11509471 51.68010206 -51.10730222 53.85727755 -51.11421204 56.03436279 C-51.16232804 72.59513208 -49.76645237 85.09821201 -37.79145813 97.4911499 C-37.32417297 97.975354 -36.85688782 98.45955811 -36.3754425 98.95843506 C-28.80538829 106.64852724 -20.72505838 112.29023061 -11.10395813 117.1161499 C-10.40141907 117.50029053 -9.69888 117.88443115 -8.97505188 118.2802124 C-5.86089252 119.67150698 -3.23798325 119.0929889 -0.10395813 118.1161499 C8.25371516 114.47672763 15.12219752 109.13734488 21.89604187 103.1161499 C22.99625671 102.14161865 22.99625671 102.14161865 24.11869812 101.1473999 C31.20505699 94.48431102 39.10115151 84.63052206 40.15817261 74.63813782 C40.24190578 71.73167987 40.23341391 68.83988134 40.18901062 65.93255615 C40.18476578 64.87705063 40.18052094 63.8215451 40.17614746 62.73405457 C40.15943237 59.38198719 40.12179275 56.0305338 40.08354187 52.6786499 C40.0684858 50.39805966 40.05479901 48.11745994 40.04252625 45.83685303 C40.00955237 40.26307788 39.95942455 34.68965777 39.89604187 29.1161499 C26.67418291 21.81934607 13.39635665 14.72294561 -0.16304016 8.07073975 C-2.10395813 7.1161499 -2.10395813 7.1161499 -4.07661438 5.86810303 C-6.10969 4.87633193 -6.10969 4.87633193 -8.22846985 5.80023193 Z " fill="#DA9433" transform="translate(80.10395812988281,12.88385009765625)"/>
<path d="M0 0 C2.12280273 0.8449707 2.12280273 0.8449707 2.95898438 2.48046875 C3.12280273 4.8449707 3.12280273 4.8449707 0.94482422 7.57470703 C-0.10962685 8.62157372 -1.17769731 9.65482928 -2.25610352 10.67700195 C-2.82038559 11.23183762 -3.38466766 11.78667328 -3.96604919 12.35832214 C-5.77920639 14.13682735 -7.60855445 15.8975056 -9.43969727 17.6574707 C-11.24241875 19.40993537 -13.0415609 21.16595232 -14.83836365 22.92448425 C-15.95729255 24.01740188 -17.0801426 25.10632561 -18.20765686 26.19038391 C-21.55106768 29.43020487 -24.59956769 32.79685439 -27.5328064 36.41412354 C-28.87719727 37.8449707 -28.87719727 37.8449707 -31.47485352 39.05981445 C-33.87719727 38.8449707 -33.87719727 38.8449707 -36.12329102 37.03637695 C-37.20803711 35.73506836 -37.20803711 35.73506836 -38.31469727 34.4074707 C-39.08426758 33.48836914 -39.85383789 32.56926758 -40.64672852 31.62231445 C-41.3827832 30.70579102 -42.11883789 29.78926758 -42.87719727 28.8449707 C-43.52043945 28.08313477 -44.16368164 27.32129883 -44.82641602 26.53637695 C-47.9587283 22.67392194 -47.9587283 22.67392194 -48.87719727 20.8449707 C-48.52563477 18.6184082 -48.52563477 18.6184082 -47.87719727 16.8449707 C-45.67407227 16.04418945 -45.67407227 16.04418945 -42.87719727 15.8449707 C-40.45532227 17.86450195 -40.45532227 17.86450195 -38.12719727 20.6574707 C-36.95930664 22.02838867 -36.95930664 22.02838867 -35.76782227 23.42700195 C-33.87719727 25.8449707 -33.87719727 25.8449707 -32.87719727 27.8449707 C-28.68324988 26.22476741 -25.99883917 23.11653187 -22.97485352 19.92700195 C-21.82635367 18.74348768 -20.67724665 17.56056237 -19.52758789 16.37817383 C-17.72592688 14.51444602 -15.92932786 12.64656585 -14.14306641 10.76806641 C-12.41287999 8.95337644 -10.66447473 7.15798695 -8.91235352 5.36450195 C-8.3819899 4.79689651 -7.85162628 4.22929108 -7.30519104 3.64448547 C-3.52242961 -0.18979574 -3.52242961 -0.18979574 0 0 Z " fill="#DE9734" transform="translate(97.877197265625,56.155029296875)"/>
</svg>
