<?xml version="1.0" encoding="UTF-8"?>
<svg version="1.1" xmlns="http://www.w3.org/2000/svg" width="150" height="150">
<path d="M0 0 C10.65592038 7.86116988 15.75038729 16.0120016 18 29 C19.15608678 39.31446172 15.79432771 48.58206038 10 57 C2.96123083 65.06582693 -6.57652332 70.25252425 -17.2890625 71.203125 C-29.51540976 71.44846976 -38.6708989 67.60988507 -47.75 59.5625 C-56.25240202 49.87920881 -58.88032622 41.17146827 -58.40625 28.23046875 C-57.6730207 18.00879404 -52.5963751 9.683222 -45 3 C-31.68096406 -6.70744782 -14.34423845 -8.74896813 0 0 Z M-36 6 C-36 23.49 -36 40.98 -36 59 C-32.7 59 -29.4 59 -26 59 C-26 52.07 -26 45.14 -26 38 C-23.36 38 -20.72 38 -18 38 C-12.11801191 36.20549516 -9.49504612 33.83138729 -6 29 C-4.14397756 25.28795513 -4.55124399 21.0512695 -5 17 C-7.20535469 12.58929061 -9.92230735 9.75244254 -14 7 C-21.12172411 5.21956897 -28.65909482 6 -36 6 Z " fill="#E89E36" transform="translate(116,22)"/>
<path d="M0 0 C12.52466741 10.29928598 19.29142038 23.26574322 20.875 39.25 C21.58523198 54.2555395 17.0867092 67.42477055 7.3125 78.8125 C-3.78084833 90.32039797 -17.31959183 95.70750741 -33.1875 96.25 C-42.61538579 96.13376579 -50.77316647 93.59496595 -58.84375 88.79296875 C-61.0234181 87.72416559 -61.0234181 87.72416559 -63.28125 88.86328125 C-63.8484375 89.23839844 -64.415625 89.61351563 -65 90 C-64.938125 91.299375 -64.87625 92.59875 -64.8125 93.9375 C-64.9498694 104.9613947 -69.99943828 110.94168504 -77.48291016 118.46826172 C-78.97194303 119.97167213 -80.43136328 121.49919648 -81.88671875 123.03515625 C-88.89467816 130.3577389 -94.928511 136.61920451 -105.484375 137.12109375 C-112.0588379 136.80462116 -116.46640647 135.01179437 -120.9375 130.125 C-124.63392099 125.66832221 -126.29483156 121.48655263 -126.4375 115.6875 C-126.47746094 114.80449219 -126.51742187 113.92148438 -126.55859375 113.01171875 C-124.91104344 104.12877265 -117.34485475 97.84721443 -111.18066406 91.73461914 C-109.62279001 90.18530215 -108.08458796 88.61812786 -106.546875 87.04882812 C-105.54540234 86.04574403 -104.54283444 85.04375198 -103.5390625 84.04296875 C-102.64396973 83.14602295 -101.74887695 82.24907715 -100.82666016 81.32495117 C-94.97913739 76.51531571 -89.8876482 75.69330175 -82.453125 76.28515625 C-79.8283472 76.25188169 -79.8283472 76.25188169 -78.171875 73.99609375 C-77.78515625 73.33738281 -77.3984375 72.67867188 -77 72 C-77.40992188 71.2265625 -77.81984375 70.453125 -78.2421875 69.65625 C-78.78101563 68.6146875 -79.31984375 67.573125 -79.875 66.5 C-80.40867188 65.4790625 -80.94234375 64.458125 -81.4921875 63.40625 C-86.96760574 51.0369114 -86.90011612 35.5616803 -82.32421875 22.92578125 C-75.41153012 7.65261374 -64.47214192 -1.70288291 -49.25 -8.16796875 C-32.66875322 -13.5518187 -14.14255387 -9.75058692 0 0 Z M-70.14453125 12.33203125 C-79.04754375 25.13362607 -81.94466421 38.55744512 -79.5390625 53.94921875 C-77.97218455 59.67293172 -75.1464788 64.54199428 -72.01171875 69.5546875 C-71 72 -71 72 -71.71484375 74.1484375 C-72.13894531 74.75945312 -72.56304687 75.37046875 -73 76 C-73.61875 76.9075 -74.2375 77.815 -74.875 78.75 C-79.03318042 81.74388991 -81.88869746 81.24660898 -86.8671875 80.78515625 C-95.48052959 81.37584679 -101.11450468 88.68140477 -106.81762695 94.48144531 C-108.31755813 96.00513826 -109.83055173 97.51489394 -111.34570312 99.0234375 C-118.79553763 105.96283241 -118.79553763 105.96283241 -121.3125 115.375 C-121.20157738 119.59699241 -120.4012176 122.4395739 -118 126 C-114.9494802 128.88996613 -112.0878249 130.95427735 -108 132 C-97.57500537 131.66904779 -91.84805864 125.24537452 -84.73999023 118.16552734 C-83.31770197 116.75515838 -81.87661552 115.36383046 -80.43554688 113.97265625 C-75.37594255 108.95244021 -71.57186154 105.05048575 -70 98 C-70.11860401 95.57492211 -70.11860401 95.57492211 -70.8125 93.5 C-71.203125 91.25390625 -71.203125 91.25390625 -71 89 C-68.71698268 85.85299677 -66.02270516 83.42742406 -63 81 C-62.31035156 81.39832031 -61.62070313 81.79664062 -60.91015625 82.20703125 C-46.77732155 90.17492571 -34.21114127 93.00683188 -18.28125 89.04296875 C-4.62809408 84.70321562 4.39544162 76.06035635 11.2578125 63.7421875 C16.9624616 51.95257935 17.06357378 39.33257794 13.4375 26.875 C9.02041964 14.83130607 -0.01156332 4.59014667 -11.625 -0.875 C-32.20074865 -9.710832 -55.55196983 -5.1489547 -70.14453125 12.33203125 Z " fill="#D69232" transform="translate(128,12)"/>
<path d="M0 0 C1.9375 1.6875 1.9375 1.6875 3 4 C2.57350228 10.46866175 -2.35006685 13.98425418 -6.71801758 18.29443359 C-8.1814614 19.74401858 -9.619326 21.2159633 -11.05664062 22.69140625 C-11.98025391 23.61308594 -12.90386719 24.53476563 -13.85546875 25.484375 C-14.69746826 26.32709961 -15.53946777 27.16982422 -16.40698242 28.03808594 C-19.37154799 30.2811185 -21.31591979 30.80053011 -25 31 C-26.875 29.9375 -26.875 29.9375 -28 28 C-28.49641365 24.13908021 -28.36383002 22.51061757 -26.07568359 19.29931641 C-25.19219238 18.40905762 -24.30870117 17.51879883 -23.3984375 16.6015625 C-22.92435455 16.1217392 -22.45027161 15.64191589 -21.96182251 15.14755249 C-20.95863733 14.14029676 -19.94788408 13.14052892 -18.93017578 12.14794922 C-17.37934886 10.62925874 -15.86315004 9.08120448 -14.34765625 7.52734375 C-13.36650126 6.55015383 -12.38348654 5.57482692 -11.3984375 4.6015625 C-10.50817871 3.71807129 -9.61791992 2.83458008 -8.70068359 1.92431641 C-5.48872017 -0.3643019 -3.862563 -0.54540663 0 0 Z " fill="#E69C36" transform="translate(45,103)"/>
<path d="M0 0 C6.22222222 -0.35897436 6.22222222 -0.35897436 9.4375 1.125 C11 3 11 3 11.4375 6 C11 9 11 9 10 10.875 C6.74686316 12.70488947 3.68609891 12.18128355 0 12 C0 8.04 0 4.08 0 0 Z " fill="#DC9633" transform="translate(90,38)"/>
</svg>
