<?xml version="1.0" encoding="UTF-8"?>
<svg version="1.1" xmlns="http://www.w3.org/2000/svg" width="150" height="150">
<path d="M0 0 C1.02478958 -0.00960754 2.04957916 -0.01921509 3.10542297 -0.02911377 C4.21685165 -0.03336365 5.32828033 -0.03761353 6.47338867 -0.04199219 C7.61289474 -0.04769226 8.75240082 -0.05339233 9.92643738 -0.05926514 C12.34157378 -0.06872488 14.75672314 -0.07525297 17.171875 -0.07910156 C20.86570812 -0.08879984 24.55898328 -0.11981183 28.25268555 -0.15136719 C30.59708328 -0.15789779 32.941485 -0.16314804 35.28588867 -0.16699219 C36.39124466 -0.17933899 37.49660065 -0.19168579 38.63545227 -0.20440674 C40.18682137 -0.19990509 40.18682137 -0.19990509 41.76953125 -0.1953125 C43.12948967 -0.20078094 43.12948967 -0.20078094 44.516922 -0.20635986 C48.24183154 0.32795375 51.06456209 1.85039805 53.37866211 4.84082031 C54.4224836 8.29984382 54.31646717 11.70888965 54.28198242 15.28613281 C54.29252694 16.89551593 54.30428264 18.5048915 54.31713867 20.11425781 C54.32746856 22.64262141 54.32878804 25.16992564 54.30883789 27.69824219 C54.29408048 30.14511619 54.31650747 32.58942424 54.34448242 35.03613281 C54.32143036 36.16752686 54.32143036 36.16752686 54.2979126 37.32177734 C54.2789974 39.74344303 54.2789974 39.74344303 55.07885742 43.16113281 C57.9471411 45.599281 57.9471411 45.599281 61.07885742 47.16113281 C62.66378826 50.33099449 62.37286163 53.70145542 62.07885742 57.16113281 C61.07885742 59.66113281 61.07885742 59.66113281 60.07885742 61.16113281 C60.73885742 62.15113281 61.39885742 63.14113281 62.07885742 64.16113281 C62.52990834 68.82199228 62.73494522 71.05984257 60.32885742 75.09863281 C58.03599921 77.20041951 57.01573088 77.5749921 54.07885742 78.16113281 C54.08933105 78.83168701 54.09980469 79.50224121 54.1105957 80.19311523 C54.15228913 83.24491598 54.17822595 86.29665665 54.20385742 89.34863281 C54.22061523 90.40373047 54.23737305 91.45882812 54.25463867 92.54589844 C54.26108398 93.56748047 54.2675293 94.5890625 54.27416992 95.64160156 C54.28464355 96.5789917 54.29511719 97.51638184 54.3059082 98.48217773 C54.05511284 101.44129333 53.43817273 103.52410629 52.07885742 106.16113281 C49.03204681 108.19233989 48.47767418 108.40773156 45.06713867 108.35644531 C43.93115234 108.34677734 43.93115234 108.34677734 42.7722168 108.33691406 C41.59369141 108.31177734 41.59369141 108.31177734 40.39135742 108.28613281 C39.59407227 108.27710937 38.79678711 108.26808594 37.9753418 108.25878906 C36.00971842 108.23524866 34.04424967 108.19937828 32.07885742 108.16113281 C31.98217773 109.22589844 31.88549805 110.29066406 31.78588867 111.38769531 C31.06098027 115.25654347 30.37759511 116.70682603 27.76635742 119.53613281 C27.17209961 120.20386719 26.5778418 120.87160156 25.96557617 121.55957031 C23.96395491 123.2586691 22.64473716 123.76463925 20.07885742 124.16113281 C20.07885742 126.80113281 20.07885742 129.44113281 20.07885742 132.16113281 C18.09885742 132.16113281 16.11885742 132.16113281 14.07885742 132.16113281 C13.52253016 128.68580446 13.30421673 125.61322287 14.07885742 122.16113281 C16.15983531 120.24157249 18.16646887 119.11308164 20.71948242 117.90332031 C24.05945991 115.71283532 24.05945991 115.71283532 27.07885742 108.16113281 C18.82885742 108.16113281 10.57885742 108.16113281 2.07885742 108.16113281 C1.74885742 110.47113281 1.41885742 112.78113281 1.07885742 115.16113281 C-0.55004883 117.59472656 -0.55004883 117.59472656 -2.48364258 119.59863281 C-3.44463867 120.61763672 -3.44463867 120.61763672 -4.42504883 121.65722656 C-4.91875977 122.15351563 -5.4124707 122.64980469 -5.92114258 123.16113281 C-7.24114258 122.50113281 -8.56114258 121.84113281 -9.92114258 121.16113281 C-9.59114258 119.84113281 -9.26114258 118.52113281 -8.92114258 117.16113281 C-8.26114258 117.16113281 -7.60114258 117.16113281 -6.92114258 117.16113281 C-5.42276506 114.37419805 -4.50142045 111.77433007 -3.73364258 108.71191406 C-1.78915608 102.05400205 1.61898093 96.32188269 5.07885742 90.34863281 C5.70791992 89.24326172 6.33698242 88.13789062 6.98510742 86.99902344 C11.54161269 79.0106588 11.54161269 79.0106588 13.77026367 75.48657227 C15.27059904 72.82039794 15.33694031 71.17209982 15.07885742 68.16113281 C13.75885742 67.50113281 12.43885742 66.84113281 11.07885742 66.16113281 C3.85842577 72.16253055 -2.14693241 78.7701438 -7.92114258 86.16113281 C-9.57114258 85.50113281 -11.22114258 84.84113281 -12.92114258 84.16113281 C-12.42614258 82.67613281 -12.42614258 82.67613281 -11.92114258 81.16113281 C-11.80504898 79.33647382 -11.74457729 77.50805396 -11.71582031 75.67993164 C-11.69587509 74.55899612 -11.67592987 73.43806061 -11.65538025 72.28315735 C-11.63031151 70.46898567 -11.63031151 70.46898567 -11.60473633 68.61816406 C-11.58395523 67.37943039 -11.56317413 66.14069672 -11.54176331 64.86442566 C-11.48742461 61.57488025 -11.43718307 58.28530555 -11.38891602 54.9956665 C-11.33863612 51.63735467 -11.28298397 48.27913235 -11.2277832 44.92089844 C-11.1206121 38.33438123 -11.01884122 31.74779697 -10.92114258 25.16113281 C-12.57114258 25.49113281 -14.22114258 25.82113281 -15.92114258 26.16113281 C-16.08195312 27.16152588 -16.24276367 28.16191895 -16.40844727 29.19262695 C-16.88830713 32.17640591 -17.36986365 35.15990687 -17.85205078 38.14331055 C-18.40488871 41.56524623 -18.95212396 44.98802106 -19.49609375 48.41137695 C-20.7290212 56.12716486 -21.99404981 63.79689605 -23.68637085 71.42764282 C-25.47682948 80.16607537 -26.19862669 88.88293267 -26.38598633 97.78613281 C-26.41295593 98.82395401 -26.43992554 99.86177521 -26.4677124 100.93104553 C-26.72371006 111.33946232 -26.84471142 121.7500233 -26.92114258 132.16113281 C-28.58726163 132.20385381 -30.25497143 132.20177113 -31.92114258 132.16113281 C-35.55878987 128.52348552 -33.6934611 114.4038165 -33.73681641 109.1953125 C-33.65839697 91.31220758 -30.74669167 73.95695349 -27.60864258 56.41113281 C-27.48327621 55.70299187 -27.35790985 54.99485092 -27.22874451 54.26525116 C-26.38497714 49.50156137 -25.51222135 44.74418861 -24.62036133 39.98925781 C-24.39517319 38.76697479 -24.16998505 37.54469177 -23.93797302 36.28536987 C-23.71803177 35.1554361 -23.49809052 34.02550232 -23.27148438 32.86132812 C-23.08273239 31.87690735 -22.89398041 30.89248657 -22.69950867 29.87823486 C-21.66199573 26.25650908 -20.36353019 23.06609977 -17.09692383 21.01660156 C-15.37166341 20.39811198 -13.64640299 19.7796224 -11.92114258 19.16113281 C-11.89536133 18.28070312 -11.86958008 17.40027344 -11.84301758 16.49316406 C-11.78629883 15.33171875 -11.72958008 14.17027344 -11.67114258 12.97363281 C-11.62473633 11.82507812 -11.57833008 10.67652344 -11.53051758 9.49316406 C-10.82631965 5.64264589 -9.62428165 3.94048821 -6.92114258 1.16113281 C-4.4442681 -0.07730442 -2.77071051 0.02092162 0 0 Z M-5.92114258 7.16113281 C-6.36149723 10.0712702 -6.36149723 10.0712702 -6.26171875 13.53857422 C-6.26215683 14.1923555 -6.26259491 14.84613678 -6.26304626 15.51972961 C-6.26095339 17.68435356 -6.23760038 19.84820641 -6.21411133 22.01269531 C-6.20851711 23.5119891 -6.20424619 25.01128837 -6.20124817 26.5105896 C-6.18978555 30.45958559 -6.16030658 34.40825133 -6.12713623 38.3571167 C-6.09646562 42.38549329 -6.0827493 46.41392316 -6.06762695 50.44238281 C-6.0354379 58.34878448 -5.98422484 66.25491758 -5.92114258 74.16113281 C-4.43614258 73.17113281 -4.43614258 73.17113281 -2.92114258 72.16113281 C-2.44267445 69.45666745 -2.44267445 69.45666745 -2.48876953 66.24267578 C-2.45907829 64.38097244 -2.45907829 64.38097244 -2.42878723 62.48165894 C-2.42201695 61.12221426 -2.41557014 59.76276795 -2.40942383 58.40332031 C-2.39258383 57.01610716 -2.37443451 55.62890933 -2.35502625 54.24172974 C-2.30744563 50.58885486 -2.2776889 46.93604208 -2.25158691 43.28295898 C-2.22182169 39.5560284 -2.1754401 35.82930771 -2.13012695 32.10253906 C-2.04242638 24.78871909 -1.98255371 17.4754105 -1.92114258 10.16113281 C13.58885742 9.83113281 29.09885742 9.50113281 45.07885742 9.16113281 C44.74885742 38.20113281 44.41885742 67.24113281 44.07885742 97.16113281 C31.86885742 97.49113281 19.65885742 97.82113281 7.07885742 98.16113281 C6.41885742 99.81113281 5.75885742 101.46113281 5.07885742 103.16113281 C11.02365371 103.2351486 16.96818335 103.28967094 22.91333008 103.32592773 C24.93681508 103.34103807 26.96026722 103.36152718 28.98364258 103.38745117 C31.88785907 103.42373609 34.79164358 103.44083637 37.69604492 103.45410156 C38.60442108 103.46958542 39.51279724 103.48506927 40.44869995 103.50102234 C41.70978073 103.50136223 41.70978073 103.50136223 42.99633789 103.50170898 C43.73802216 103.50837082 44.47970642 103.51503265 45.24386597 103.52189636 C45.84941315 103.40284439 46.45496033 103.28379242 47.07885742 103.16113281 C49.6681085 99.27725619 49.36689944 96.03523124 49.35351562 91.53051758 C49.35862656 90.64892975 49.36373749 89.76734192 49.3690033 88.85903931 C49.38292178 85.94013714 49.38194084 83.0214705 49.37963867 80.10253906 C49.38352435 78.07616589 49.38785876 76.04979354 49.3926239 74.02342224 C49.40009096 69.77397014 49.3997913 65.52460112 49.39453125 61.27514648 C49.3887359 55.82629958 49.40566693 50.37779251 49.42887592 44.92900181 C49.44359913 40.74344388 49.44448689 36.55796807 49.4413662 32.37238884 C49.44188012 30.36331446 49.44713108 28.35423556 49.45717812 26.34518623 C49.4694978 23.53694627 49.46277772 20.72937168 49.45117188 17.92114258 C49.45881561 17.08931961 49.46645935 16.25749664 49.47433472 15.40046692 C49.44452217 12.14116195 49.29176638 9.59903694 47.85502625 6.64399719 C45.54376559 4.71440241 44.28163934 4.66531082 41.2878418 4.67529297 C40.31673462 4.66913971 39.34562744 4.66298645 38.34509277 4.65664673 C36.77471252 4.67820328 36.77471252 4.67820328 35.17260742 4.70019531 C33.55823792 4.70156998 33.55823792 4.70156998 31.91125488 4.70297241 C29.63488355 4.70901672 27.35852048 4.72478738 25.08227539 4.74951172 C21.59255761 4.7859896 18.10390206 4.79053136 14.61401367 4.79003906 C12.40436905 4.79987101 10.19473165 4.81152834 7.98510742 4.82519531 C6.93818726 4.82742096 5.89126709 4.82964661 4.81262207 4.8319397 C3.3559613 4.85107925 3.3559613 4.85107925 1.86987305 4.87060547 C0.58771912 4.88204086 0.58771912 4.88204086 -0.72033691 4.89370728 C-3.21023816 5.02865843 -3.21023816 5.02865843 -5.92114258 7.16113281 Z M2.07885742 14.16113281 C2.07885742 30.99113281 2.07885742 47.82113281 2.07885742 65.16113281 C4.38885742 63.84113281 6.69885742 62.52113281 9.07885742 61.16113281 C11.93725586 60.67529297 11.93725586 60.67529297 14.68823242 60.70019531 C15.68983398 60.7040625 16.69143555 60.70792969 17.72338867 60.71191406 C18.74819336 60.73640625 19.77299805 60.76089844 20.82885742 60.78613281 C22.38926758 60.78806641 22.38926758 60.78806641 23.98120117 60.79003906 C31.65625723 60.87939935 31.65625723 60.87939935 35.07885742 63.16113281 C36.01628283 65.97340903 36.21356586 67.74860125 36.20385742 70.66113281 C36.20772461 71.82128906 36.20772461 71.82128906 36.21166992 73.00488281 C36.07885742 75.16113281 36.07885742 75.16113281 35.07885742 78.16113281 C32.49923735 79.45094285 30.34145513 79.10705503 27.51635742 79.0456543 C23.80547776 79.02950203 20.72564989 79.30801771 17.07885742 80.16113281 C13.6532417 83.65951488 11.07885742 88.13842006 11.07885742 93.16113281 C20.64885742 93.16113281 30.21885742 93.16113281 40.07885742 93.16113281 C40.07885742 67.09113281 40.07885742 41.02113281 40.07885742 14.16113281 C27.53885742 14.16113281 14.99885742 14.16113281 2.07885742 14.16113281 Z M54.07885742 49.16113281 C54.07885742 52.13113281 54.07885742 55.10113281 54.07885742 58.16113281 C55.06885742 57.17113281 56.05885742 56.18113281 57.07885742 55.16113281 C57.00352495 52.53384142 57.00352495 52.53384142 56.07885742 50.16113281 C55.41885742 49.83113281 54.75885742 49.50113281 54.07885742 49.16113281 Z M54.07885742 64.16113281 C54.07885742 67.13113281 54.07885742 70.10113281 54.07885742 73.16113281 C55.06885742 72.17113281 56.05885742 71.18113281 57.07885742 70.16113281 C57.00352495 67.53384142 57.00352495 67.53384142 56.07885742 65.16113281 C55.41885742 64.83113281 54.75885742 64.50113281 54.07885742 64.16113281 Z M20.07885742 65.16113281 C20.24385742 66.25425781 20.40885742 67.34738281 20.57885742 68.47363281 C21.07885742 72.16113281 21.07885742 72.16113281 21.07885742 75.16113281 C24.37885742 75.16113281 27.67885742 75.16113281 31.07885742 75.16113281 C31.09948242 73.69675781 31.12010742 72.23238281 31.14135742 70.72363281 C31.15295898 69.89992188 31.16456055 69.07621094 31.17651367 68.22753906 C31.3115309 66.16949343 31.3115309 66.16949343 30.07885742 65.16113281 C28.39276776 65.0890777 26.70385083 65.07727214 25.01635742 65.09863281 C24.09725586 65.10765625 23.1781543 65.11667969 22.23120117 65.12597656 C21.52092773 65.13757813 20.8106543 65.14917969 20.07885742 65.16113281 Z " fill="#D3943A" transform="translate(59.921142578125,8.8388671875)"/>
<path d="M0 0 C1.32 0.66 2.64 1.32 4 2 C3.65839844 2.70382813 3.31679687 3.40765625 2.96484375 4.1328125 C1.85206434 7.43961446 2.0680551 9.44506688 2.5625 12.875 C3.11816153 18.39773352 2.97745753 21.29369617 0 26 C-3.62481502 29.78284511 -6.90059417 31.7941759 -12.1875 32.3125 C-17.44905539 31.88122497 -21.73538237 30.44857817 -25.39453125 26.4921875 C-28.38766944 21.94430968 -28.91246202 17.31485607 -28 12 C-26.60662478 7.8033847 -24.44951299 4.98369157 -20.75 2.5625 C-15.62071738 0.00335043 -10.9692047 0.43737008 -5.5 2 C-4.2625 2.495 -4.2625 2.495 -3 3 C-2.01 2.01 -1.02 1.02 0 0 Z M-20 9 C-22.57648705 12.00590156 -23.24443655 14.19465114 -23 18.0625 C-22.45536139 21.16635445 -22.01362408 21.98481889 -19.8125 24.4375 C-16.6517529 26.19347061 -14.62078671 26.92610639 -11 27 C-7.02527937 25.47126129 -5.38146335 24.57219503 -3 21 C-2.75944532 18.94290404 -2.75944532 18.94290404 -2.875 16.8125 C-2.91625 15.554375 -2.9575 14.29625 -3 13 C-5.93200474 15.85276137 -8.64315404 18.65079784 -11 22 C-15.31392226 21.5206753 -17.16569547 20.2542015 -20 17 C-19.34 15.68 -18.68 14.36 -18 13 C-17.401875 13.515625 -16.80375 14.03125 -16.1875 14.5625 C-15.1046875 15.2740625 -15.1046875 15.2740625 -14 16 C-10.27059611 14.75686537 -9.15343189 13.23014784 -7 10 C-7.33 9.01 -7.66 8.02 -8 7 C-13.12193016 5.89526997 -15.87747754 5.56456462 -20 9 Z " fill="#D29339" transform="translate(94,34)"/>
<path d="M0 0 C1.9375 0.125 1.9375 0.125 4 1 C5.75 3.0625 5.75 3.0625 7 5 C6.01 6.485 6.01 6.485 5 8 C0.32307692 6.52307692 0.32307692 6.52307692 -1.3125 3.875 C-1.539375 3.25625 -1.76625 2.6375 -2 2 C-1.34 1.34 -0.68 0.68 0 0 Z " fill="#CC8F37" transform="translate(66,80)"/>
</svg>
