<?xml version="1.0" encoding="UTF-8"?>
<svg version="1.1" xmlns="http://www.w3.org/2000/svg" width="560" height="302">
<path d="M0 0 C0 99.66 0 199.32 0 302 C-112.86 302 -225.72 302 -342 302 C-338.90655942 280.34591593 -335.83102729 262.22680758 -318.72265625 247.90625 C-308.18780142 240.53034017 -296.28108926 236.45590182 -284 233 C-280.61069054 232.0404238 -277.2233565 231.07496203 -273.83911133 230.09765625 C-271.5102132 229.42596534 -269.17814284 228.76514162 -266.8425293 228.1171875 C-252.79049247 224.07491962 -239.94541356 218.0703266 -231.75 205.4375 C-228.01297986 198.64099311 -225.49687724 191.32030211 -223 184 C-222.66742188 183.07445312 -222.33484375 182.14890625 -221.9921875 181.1953125 C-220.1356151 175.40929562 -219.77470997 169.89840627 -219.5625 163.875 C-218.66391151 139.27796149 -208.99282384 118.77757237 -192 101 C-191.08154297 99.96939453 -191.08154297 99.96939453 -190.14453125 98.91796875 C-176.26432879 83.91314434 -154.19119338 74.18130913 -133.99780273 72.79370117 C-130.89134929 72.69742525 -127.79537471 72.67192108 -124.6875 72.6875 C-123.5931665 72.68951416 -122.49883301 72.69152832 -121.37133789 72.69360352 C-113.19217859 72.79486525 -105.89605486 73.81357448 -98 76 C-90.4123687 78.06935399 -84.66825543 75.73525822 -78 72 C-65.43149793 63.32131171 -59.16783316 49.58286362 -52.66674805 36.2734375 C-45.26042805 21.23850686 -36.61676313 8.48169697 -20.21850586 2.87548828 C-19.52764893 2.64845215 -18.83679199 2.42141602 -18.125 2.1875 C-17.47732666 1.96819824 -16.82965332 1.74889648 -16.16235352 1.52294922 C-10.32638951 -0.27195196 -6.5928611 0 0 0 Z " fill="#5CE0E6" transform="translate(560,0)"/>
<path d="M0 0 C19.69833649 15.03356256 34.71316435 37.20432461 38.3828125 62.05957031 C40.53986142 89.9642508 35.03623488 115.89811929 16.7890625 137.80175781 C1.39731833 155.19749037 -19.85017792 168.4776407 -43.37109375 171.24316406 C-56.50606416 171.86727989 -69.73261337 172.25827696 -82.37109375 168.24316406 C-82.99741699 168.04980469 -83.62374023 167.85644531 -84.26904297 167.65722656 C-99.2203102 162.93692392 -111.10946874 155.16950427 -122.37109375 144.24316406 C-123.39783203 143.32664063 -123.39783203 143.32664063 -124.4453125 142.39160156 C-139.25311281 128.71838713 -149.09790979 106.2194161 -150.59350586 86.27758789 C-151.58693547 59.14307291 -146.36788802 35.87766843 -127.87109375 14.99316406 C-126.37778777 13.40351577 -124.87813233 11.81979945 -123.37109375 10.24316406 C-122.75878906 9.55609375 -122.14648438 8.86902344 -121.515625 8.16113281 C-90.55768873 -25.30512239 -35.48164905 -25.8143676 0 0 Z " fill="#4567B7" transform="translate(491.37109375,90.7568359375)"/>
<path d="M0 0 C38.28 0 76.56 0 116 0 C116 3.3 116 6.6 116 10 C113.90011719 10.05607422 113.90011719 10.05607422 111.7578125 10.11328125 C109.88018408 10.17899824 108.00258106 10.24544353 106.125 10.3125 C105.2071875 10.33505859 104.289375 10.35761719 103.34375 10.38085938 C91.19903651 10.85125321 81.50896557 14.29527607 72.921875 23.140625 C66.86158534 30.42315795 65.03051371 36.93335441 64.4296875 46.30078125 C64.34702637 47.55673096 64.26436523 48.81268066 64.17919922 50.10668945 C64.12006348 51.06148193 64.06092773 52.01627441 64 53 C56.68927593 53.13943859 49.37884166 53.24584038 42.06705379 53.31087303 C38.67125695 53.34209712 35.27637428 53.38439934 31.88110352 53.45263672 C27.9716309 53.53071057 24.06251961 53.55949206 20.15234375 53.5859375 C18.94166733 53.61690521 17.73099091 53.64787292 16.48362732 53.67977905 C15.34297318 53.68023224 14.20231903 53.68068542 13.02709961 53.68115234 C11.53151772 53.70113785 11.53151772 53.70113785 10.00572205 53.7215271 C7 53 7 53 0 47 C0 31.49 0 15.98 0 0 Z " fill="#F8CA07" transform="translate(372,156)"/>
<path d="M0 0 C13.9337962 -0.02254828 27.86758037 -0.04091349 41.80139065 -0.05181217 C48.2706768 -0.05704168 54.73994989 -0.06414056 61.20922852 -0.07543945 C67.446703 -0.08626592 73.68416487 -0.09227632 79.92164803 -0.09487724 C82.30720277 -0.09673193 84.69275679 -0.10035336 87.0783062 -0.10573006 C90.40695591 -0.11293729 93.73555279 -0.11399108 97.06420898 -0.11352539 C98.06114273 -0.11712067 99.05807648 -0.12071594 100.08522034 -0.12442017 C100.98690948 -0.1230455 101.88859863 -0.12167084 102.81761169 -0.12025452 C103.6057447 -0.12117631 104.3938777 -0.1220981 105.20589352 -0.12304783 C107 0 107 0 108 1 C108.09946453 2.76859193 108.13080217 4.54111451 108.1328125 6.3125 C108.13410156 7.38757813 108.13539063 8.46265625 108.13671875 9.5703125 C108.13285156 10.70210937 108.12898438 11.83390625 108.125 13 C108.12886719 14.13179687 108.13273437 15.26359375 108.13671875 16.4296875 C108.13542969 17.50476563 108.13414062 18.57984375 108.1328125 19.6875 C108.13168457 20.68136719 108.13055664 21.67523438 108.12939453 22.69921875 C108 25 108 25 107 26 C105.60856311 26.09543095 104.21231633 26.12188575 102.81761169 26.12025452 C101.46507797 26.12231651 101.46507797 26.12231651 100.08522034 26.12442017 C99.08828659 26.12082489 98.09135284 26.11722961 97.06420898 26.11352539 C96.02043091 26.11367142 94.97665283 26.11381744 93.90124512 26.1139679 C90.43284057 26.11326826 86.96448897 26.10547353 83.49609375 26.09765625 C81.09855682 26.09579225 78.7010195 26.09436826 76.30348206 26.09336853 C69.97904416 26.08954194 63.65462906 26.07971046 57.3302002 26.06866455 C50.88224598 26.05845345 44.43428809 26.05387156 37.98632812 26.04882812 C25.3242071 26.03808831 12.66210901 26.02049038 0 26 C0 17.42 0 8.84 0 0 Z " fill="#DFDED9" transform="translate(30,198)"/>
<path d="M0 0 C5.31948728 4.13737899 9.66937486 8.94562457 11.828125 15.421875 C12.52968064 25.11714396 12.52023516 32.53850371 6.3203125 40.3125 C1.36173943 45.80152507 -3.97340813 48.92218017 -11.35546875 49.80078125 C-18.28840614 50.0492449 -23.43828948 49.38925257 -29.171875 45.421875 C-30.203125 44.761875 -31.234375 44.101875 -32.296875 43.421875 C-37.42661115 38.81356808 -40.53167647 32.02242418 -41.72265625 25.32421875 C-42.09496002 17.08034951 -39.84504825 10.49464032 -34.3046875 4.3515625 C-24.77867906 -4.50725469 -11.46418966 -7.55787318 0 0 Z " fill="#F6C909" transform="translate(487.171875,180.578125)"/>
<path d="M0 0 C0.86915039 -0.00860046 1.73830078 -0.01720093 2.63378906 -0.02606201 C3.58964905 -0.03032196 4.54550903 -0.03458191 5.53033447 -0.03897095 C6.53536011 -0.04714844 7.54038574 -0.05532593 8.5758667 -0.06375122 C11.9125712 -0.08862924 15.24923308 -0.10512764 18.58599854 -0.11953735 C20.29309368 -0.12752287 20.29309368 -0.12752287 22.0346756 -0.13566971 C28.05861234 -0.16241205 34.08252827 -0.1817833 40.10650635 -0.19619751 C46.33215107 -0.21284579 52.55726647 -0.25762263 58.78271103 -0.30856895 C63.56624975 -0.34220858 68.34966236 -0.35377142 73.13330841 -0.35942459 C75.42824599 -0.36614635 77.72317501 -0.38139224 80.01799774 -0.4053154 C83.23088319 -0.43689738 86.44233486 -0.43701361 89.65533447 -0.42959595 C91.07697906 -0.45420395 91.07697906 -0.45420395 92.52734375 -0.47930908 C96.93792631 -0.43763699 99.91852772 -0.26468671 103.4263916 2.56536865 C108.13615772 7.59226021 106.85162354 7.6485759 106.85162354 16.15390015 C68.24162354 16.15390015 29.63162354 16.15390015 -10.14837646 16.15390015 C-10.14837646 6.15390015 -10.14837646 6.15390015 -8.27337646 3.09140015 C-5.36164634 0.43658738 -3.83476437 0.02821681 0 0 Z " fill="#F3C80C" transform="translate(382.14837646484375,123.84609985351563)"/>
<path d="M0 0 C19.8 0 39.6 0 60 0 C60 7.26 60 14.52 60 22 C40.2 22 20.4 22 0 22 C0 14.74 0 7.48 0 0 Z " fill="#F9F9F9" transform="translate(147,202)"/>
<path d="M0 0 C13.9337962 -0.02254828 27.86758037 -0.04091349 41.80139065 -0.05181217 C48.2706768 -0.05704168 54.73994989 -0.06414056 61.20922852 -0.07543945 C67.446703 -0.08626592 73.68416487 -0.09227632 79.92164803 -0.09487724 C82.30720277 -0.09673193 84.69275679 -0.10035336 87.0783062 -0.10573006 C90.40695591 -0.11293729 93.73555279 -0.11399108 97.06420898 -0.11352539 C98.06114273 -0.11712067 99.05807648 -0.12071594 100.08522034 -0.12442017 C100.98690948 -0.1230455 101.88859863 -0.12167084 102.81761169 -0.12025452 C103.6057447 -0.12117631 104.3938777 -0.1220981 105.20589352 -0.12304783 C107 0 107 0 108 1 C108.09946453 2.76859193 108.13080217 4.54111451 108.1328125 6.3125 C108.13410156 7.38757813 108.13539063 8.46265625 108.13671875 9.5703125 C108.13285156 10.70210937 108.12898438 11.83390625 108.125 13 C108.12886719 14.13179687 108.13273437 15.26359375 108.13671875 16.4296875 C108.13542969 17.50476563 108.13414062 18.57984375 108.1328125 19.6875 C108.13168457 20.68136719 108.13055664 21.67523438 108.12939453 22.69921875 C108 25 108 25 107 26 C104.85256451 26.09425595 102.70198974 26.11742648 100.55249023 26.11352539 C99.54277664 26.11374443 99.54277664 26.11374443 98.51266479 26.1139679 C96.27794216 26.11326878 94.0433019 26.10547652 91.80859375 26.09765625 C90.26302638 26.09579206 88.71745843 26.09436816 87.17189026 26.09336853 C83.09642923 26.0895434 79.02100363 26.07971317 74.94555664 26.06866455 C70.78988118 26.05845032 66.63420001 26.05387089 62.47851562 26.04882812 C54.31899413 26.03809089 46.15950147 26.02101454 38 26 C38 25.34 38 24.68 38 24 C38.66541306 24.00745743 39.33082611 24.01491486 40.0164032 24.02259827 C46.94371162 24.09142176 53.86906168 24.0974861 60.79663086 24.06713867 C63.38162275 24.06405686 65.96668525 24.07696731 68.55151367 24.10620117 C72.26876043 24.14546535 75.98196037 24.12717413 79.69921875 24.09765625 C81.43228523 24.13452293 81.43228523 24.13452293 83.20036316 24.1721344 C86.37947067 24.1152411 88.97555419 23.98583012 92 23 C95.51507779 19.29355076 96.8876174 14.89643504 98 10 C101.465 9.505 101.465 9.505 105 9 C105.33 8.01 105.66 7.02 106 6 C91.81 6 77.62 6 63 6 C63 4.68 63 3.36 63 2 C67.75 2.875 67.75 2.875 70 4 C70 3.34 70 2.68 70 2 C67.36 2 64.72 2 62 2 C61.67 2.99 61.34 3.98 61 5 C43.84 5.33 26.68 5.66 9 6 C4.14462031 14.80688248 4.14462031 14.80688248 3 20 C4.98 20 6.96 20 9 20 C9.66 18.35 10.32 16.7 11 15 C13.64 15 16.28 15 19 15 C19.66 13.35 20.32 11.7 21 10 C21.99 10.33 22.98 10.66 24 11 C22.68 13.97 21.36 16.94 20 20 C21.32 19.67 22.64 19.34 24 19 C24.33 18.01 24.66 17.02 25 16 C26.65 16 28.3 16 30 16 C30 17.98 30 19.96 30 22 C28.02 22.33 26.04 22.66 24 23 C25.98 23 27.96 23 30 23 C30 23.66 30 24.32 30 25 C24.39 25 18.78 25 13 25 C13.66 24.34 14.32 23.68 15 23 C14.01 22.67 13.02 22.34 12 22 C12 22.99 12 23.98 12 25 C8.04 25 4.08 25 0 25 C0 16.75 0 8.5 0 0 Z " fill="#ECF3F3" transform="translate(30,198)"/>
<path d="M0 0 C0.66 0.33 1.32 0.66 2 1 C2 1.66 2 2.32 2 3 C-0.31 2.34 -2.62 1.68 -5 1 C-5 2.32 -5 3.64 -5 5 C-4.34 4.67 -3.68 4.34 -3 4 C0.06242321 3.91288225 3.10186465 3.8845154 6.1640625 3.90234375 C7.07127045 3.9037587 7.97847839 3.90517365 8.91317749 3.90663147 C11.81715155 3.91223904 14.72104915 3.92479282 17.625 3.9375 C19.59114472 3.94251402 21.55729065 3.9470771 23.5234375 3.95117188 C28.3489879 3.96221094 33.17448097 3.97948065 38 4 C38 5.32 38 6.64 38 8 C37 9 37 9 33.4375 9.0625 C32.303125 9.041875 31.16875 9.02125 30 9 C29.9071875 10.2375 29.9071875 10.2375 29.8125 11.5 C28.74558359 16.0959476 27.52208442 19.72969717 24 23 C19.90047895 24.13209809 15.92478546 23.9322611 11.69921875 23.78125 C10.50770706 23.76993042 9.31619537 23.75861084 8.08857727 23.74694824 C4.2865759 23.7021992 0.48835941 23.60182374 -3.3125 23.5 C-5.89122155 23.45987181 -8.47000226 23.42336992 -11.04882812 23.390625 C-17.36717461 23.30246794 -23.68331697 23.16863991 -30 23 C-30.33 23.66 -30.66 24.32 -31 25 C-31.66 23.68 -32.32 22.36 -33 21 C-32 20 -32 20 -29.82969666 19.87974548 C-28.87261307 19.88196609 -27.91552948 19.88418671 -26.92944336 19.88647461 C-25.84839828 19.88655014 -24.76735321 19.88662567 -23.65354919 19.88670349 C-21.889515 19.89444542 -21.889515 19.89444542 -20.08984375 19.90234375 C-18.89267227 19.9037587 -17.69550079 19.90517365 -16.46205139 19.90663147 C-12.62050934 19.91225021 -8.77902457 19.92480589 -4.9375 19.9375 C-2.34049563 19.94251259 0.25650965 19.94707591 2.85351562 19.95117188 C9.23569679 19.96222573 15.6178443 19.97898208 22 20 C22 19.34 22 18.68 22 18 C19.36 18 16.72 18 14 18 C14.875 12.25 14.875 12.25 16 10 C15.34 9.67 14.68 9.34 14 9 C13.814375 10.11375 13.814375 10.11375 13.625 11.25 C13 14 13 14 11 18 C6.71 18 2.42 18 -2 18 C-2 14.23312136 -1.76462683 13.08809695 0 10 C-1.32 9.67 -2.64 9.34 -4 9 C-4.433125 10.3921875 -4.433125 10.3921875 -4.875 11.8125 C-6 15 -6 15 -8 18 C-11.125 18.1875 -11.125 18.1875 -14 18 C-13.43454163 14.04179141 -12.19097652 11.3340947 -10 8 C-11.98 8 -13.96 8 -16 8 C-15.4375 6.0625 -15.4375 6.0625 -14 4 C-10.375 3.25 -10.375 3.25 -7 3 C-7.33 2.34 -7.66 1.68 -8 1 C-5.26094655 -0.36952673 -3.02912668 -0.12621361 0 0 Z " fill="#A0AF7E" transform="translate(98,199)"/>
<path d="M0 0 C2.47176114 0 4.94242747 -0.01482946 7.4140625 -0.03515625 C9.15104071 -0.044452 10.88801993 -0.05355966 12.625 -0.0625 C13.95144531 -0.07506836 13.95144531 -0.07506836 15.3046875 -0.08789062 C16.56539062 -0.09272461 16.56539062 -0.09272461 17.8515625 -0.09765625 C19.00906006 -0.10551147 19.00906006 -0.10551147 20.18994141 -0.11352539 C22 0 22 0 23 1 C23.125 3.5 23.125 3.5 23 6 C22.67 6.33 22.34 6.66 22 7 C20.02 7 18.04 7 16 7 C16 13.93 16 20.86 16 28 C14.02 28 12.04 28 10 28 C8.41596476 26.41596476 8.78025065 24.7228362 8.68359375 22.52734375 C8.64169922 21.62822266 8.59980469 20.72910156 8.55664062 19.80273438 C8.51732422 18.85720703 8.47800781 17.91167969 8.4375 16.9375 C8.39431641 15.98810547 8.35113281 15.03871094 8.30664062 14.06054688 C8.20020724 11.70718647 8.09818992 9.35371646 8 7 C4.65747276 6.92572162 2.1964086 6.93453047 -1 8 C-2.33446924 7.97040492 -3.66846794 7.90580812 -5 7.8125 C-8.31060007 7.76666081 -8.31060007 7.76666081 -11.0625 9.625 C-12.32868536 12.83266959 -11.99549067 14.7291021 -11 18 C-7.27722734 20.48184844 -5.36204333 20.06706696 -1.05859375 19.77734375 C-0.37925781 19.85082031 0.30007812 19.92429687 1 20 C3 23 3 23 2.8125 25.125 C2.544375 25.74375 2.27625 26.3625 2 27 C-2.07047347 28.35682449 -5.74391717 28.52472254 -10 28 C-14.324855 25.79677198 -17.60172751 23.24309748 -20 19 C-20.66736112 14.45594563 -20.53327469 10.44297858 -18.9375 6.125 C-13.23505276 -0.12929697 -8.02272086 -0.50492649 0 0 Z " fill="#000001" transform="translate(173,78)"/>
<path d="M0 0 C2.31 0 4.62 0 7 0 C9 4 11 8 13 12 C14.65 8.04 16.3 4.08 18 0 C20.33294775 -0.04241723 22.66702567 -0.04092937 25 0 C26.53907947 1.53907947 26.32362017 3.12227543 26.53515625 5.26171875 C26.62216797 6.13376953 26.70917969 7.00582031 26.79882812 7.90429688 C26.88583984 8.82275391 26.97285156 9.74121094 27.0625 10.6875 C27.15337891 11.58662109 27.24425781 12.48574219 27.33789062 13.41210938 C28.22513056 22.504651 28.22513056 22.504651 28 27 C27 28 27 28 23.9375 28.0625 C22.968125 28.041875 21.99875 28.02125 21 28 C20.34 24.37 19.68 20.74 19 17 C17.68 20.3 16.36 23.6 15 27 C13.35 27 11.7 27 10 27 C9.01 24.03 8.02 21.06 7 18 C5.51129729 19.48870271 5.70656197 20.9343803 5.5 23 C5.11111111 26.88888889 5.11111111 26.88888889 4 28 C2.00041636 28.04080783 -0.00045254 28.04254356 -2 28 C-2.30470113 18.55426495 -1.14169926 9.3578564 0 0 Z " fill="#000001" transform="translate(102,121)"/>
<path d="M0 0 C20.13 0 40.26 0 61 0 C61.495 1.485 61.495 1.485 62 3 C60.34702091 4.65297909 58.38963445 4.16692183 56.11303711 4.20532227 C55.07203354 4.22526749 54.03102997 4.24521271 52.95848083 4.26576233 C51.8262056 4.28247482 50.69393036 4.29918732 49.52734375 4.31640625 C47.79817467 4.3475779 47.79817467 4.3475779 46.03407288 4.37937927 C42.33527843 4.44499964 38.63641041 4.50381755 34.9375 4.5625 C32.43684121 4.60567335 29.93618999 4.64928724 27.43554688 4.69335938 C21.29044338 4.80069368 15.14526596 4.90243643 9 5 C8.18247697 6.58074564 7.37118003 8.16471223 6.5625 9.75 C6.11003906 10.63171875 5.65757813 11.5134375 5.19140625 12.421875 C4.16544602 14.64198566 3.48491397 16.61444619 3 19 C4.98 19 6.96 19 9 19 C9.66 17.35 10.32 15.7 11 14 C13.64 14 16.28 14 19 14 C19.66 12.35 20.32 10.7 21 9 C21.99 9.33 22.98 9.66 24 10 C22.68 12.97 21.36 15.94 20 19 C21.32 18.67 22.64 18.34 24 18 C24.33 17.01 24.66 16.02 25 15 C26.65 15 28.3 15 30 15 C30 16.98 30 18.96 30 21 C28.02 21.33 26.04 21.66 24 22 C25.98 22 27.96 22 30 22 C30 22.66 30 23.32 30 24 C24.39 24 18.78 24 13 24 C13.66 23.34 14.32 22.68 15 22 C14.01 21.67 13.02 21.34 12 21 C12 21.99 12 22.98 12 24 C8.04 24 4.08 24 0 24 C0 16.08 0 8.16 0 0 Z " fill="#FBF9F7" transform="translate(30,199)"/>
<path d="M0 0 C3.71484375 0.46875 3.71484375 0.46875 6.1484375 3.3125 C6.84294993 4.51632154 7.51039099 5.7360982 8.15234375 6.96875 C8.50232422 7.58878906 8.85230469 8.20882812 9.21289062 8.84765625 C10.07053744 10.3749725 10.89595569 11.92030713 11.71484375 13.46875 C12.04484375 9.17875 12.37484375 4.88875 12.71484375 0.46875 C15.02484375 0.46875 17.33484375 0.46875 19.71484375 0.46875 C19.71484375 9.70875 19.71484375 18.94875 19.71484375 28.46875 C13.71484375 28.46875 13.71484375 28.46875 11.66796875 26.640625 C10.82492188 25.44179687 10.82492188 25.44179687 9.96484375 24.21875 C9.3925 23.42984375 8.82015625 22.6409375 8.23046875 21.828125 C6.89767115 19.7533576 5.75875538 17.69985526 4.71484375 15.46875 C4.65425781 16.32339844 4.59367187 17.17804688 4.53125 18.05859375 C4.44746094 19.16332031 4.36367187 20.26804687 4.27734375 21.40625 C4.19613281 22.50839844 4.11492187 23.61054687 4.03125 24.74609375 C3.71484375 27.46875 3.71484375 27.46875 2.71484375 28.46875 C-0.28515625 28.59375 -0.28515625 28.59375 -3.28515625 28.46875 C-5.05965219 26.69425406 -4.41545697 24.11857739 -4.41796875 21.71875 C-4.41925781 20.5534375 -4.42054687 19.388125 -4.421875 18.1875 C-4.41800781 16.9603125 -4.41414063 15.733125 -4.41015625 14.46875 C-4.41402344 13.2415625 -4.41789062 12.014375 -4.421875 10.75 C-4.42058594 9.5846875 -4.41929688 8.419375 -4.41796875 7.21875 C-4.41684082 6.14109375 -4.41571289 5.0634375 -4.41455078 3.953125 C-4.2182505 0.18415958 -3.85374871 0.54988091 0 0 Z " fill="#010102" transform="translate(87.28515625,77.53125)"/>
<path d="M0 0 C2.31 0 4.62 0 7 0 C8.92409498 2.24838066 10.105419 3.94219177 11.4375 6.5 C11.78748047 7.12003906 12.13746094 7.74007812 12.49804688 8.37890625 C13.35569369 9.9062225 14.18111194 11.45155713 15 13 C15.33 8.71 15.66 4.42 16 0 C18.31 0 20.62 0 23 0 C23 9.24 23 18.48 23 28 C21.02 28 19.04 28 17 28 C14.69921875 25.6640625 14.69921875 25.6640625 12.6875 22.625 C12.01074219 21.62726563 11.33398438 20.62953125 10.63671875 19.6015625 C9 17 9 17 8 15 C7.93941406 15.85464844 7.87882813 16.70929688 7.81640625 17.58984375 C7.73261719 18.69457031 7.64882812 19.79929688 7.5625 20.9375 C7.48128906 22.03964844 7.40007812 23.14179688 7.31640625 24.27734375 C7 27 7 27 6 28 C4.02 28 2.04 28 0 28 C0 18.76 0 9.52 0 0 Z " fill="#000000" transform="translate(150,121)"/>
<path d="M0 0 C4.25269321 2.42676622 7.12199483 5.4681002 9 10 C9.4850824 15.23888993 8.85631117 18.56779301 6 23 C1.67899005 26.89944801 -0.99463165 28.36020885 -6.90234375 28.28515625 C-11.11636216 27.71230086 -13.80672658 25.1109787 -16.8125 22.3125 C-18.68565243 18.6647821 -19.10659049 15.07886287 -19 11 C-17.6207456 6.78110418 -15.43481156 3.65031007 -11.8671875 0.92578125 C-7.99698661 -0.99312589 -4.15265463 -0.93811945 0 0 Z M-9.9375 8.625 C-11.30225246 11.67562315 -11.41407022 13.68743824 -11 17 C-10.02896212 19.46186579 -10.02896212 19.46186579 -8 21 C-4.87757843 21.45535315 -2.93163039 21.49686954 -0.125 20 C1.64629177 16.85103686 1.54794453 13.52961671 1 10 C0.34 9.01 -0.32 8.02 -1 7 C-5.84838688 6.33992976 -5.84838688 6.33992976 -9.9375 8.625 Z " fill="#000000" transform="translate(73,78)"/>
<path d="M0 0 C1.4540625 0.0309375 1.4540625 0.0309375 2.9375 0.0625 C5.88928941 6.34484826 8.65531398 12.68803327 11.25 19.125 C11.51635254 19.77992432 11.78270508 20.43484863 12.05712891 21.10961914 C13.9375 25.82042407 13.9375 25.82042407 13.9375 28.0625 C10.5625 28.25 10.5625 28.25 6.9375 28.0625 C4.9375 25.0625 4.9375 25.0625 4.9375 22.0625 C1.6375 22.0625 -1.6625 22.0625 -5.0625 22.0625 C-5.7225 24.0425 -6.3825 26.0225 -7.0625 28.0625 C-9.3725 28.0625 -11.6825 28.0625 -14.0625 28.0625 C-13.43636216 24.41877114 -12.4356497 21.21375221 -11.03125 17.796875 C-10.63292969 16.82492188 -10.23460937 15.85296875 -9.82421875 14.8515625 C-9.19966797 13.34722656 -9.19966797 13.34722656 -8.5625 11.8125 C-8.14613281 10.79414063 -7.72976562 9.77578125 -7.30078125 8.7265625 C-3.73685761 0.0762624 -3.73685761 0.0762624 0 0 Z M-1.0625 11.0625 C-1.3925 12.7125 -1.7225 14.3625 -2.0625 16.0625 C-0.7425 15.7325 0.5775 15.4025 1.9375 15.0625 C1.2775 13.7425 0.6175 12.4225 -0.0625 11.0625 C-0.3925 11.0625 -0.7225 11.0625 -1.0625 11.0625 Z " fill="#000101" transform="translate(64.0625,120.9375)"/>
<path d="M0 0 C1.4540625 0.0309375 1.4540625 0.0309375 2.9375 0.0625 C5.88928941 6.34484826 8.65531398 12.68803327 11.25 19.125 C11.51635254 19.77992432 11.78270508 20.43484863 12.05712891 21.10961914 C13.9375 25.82042407 13.9375 25.82042407 13.9375 28.0625 C10.5625 28.25 10.5625 28.25 6.9375 28.0625 C4.9375 25.0625 4.9375 25.0625 4.9375 22.0625 C1.6375 22.0625 -1.6625 22.0625 -5.0625 22.0625 C-5.7225 24.0425 -6.3825 26.0225 -7.0625 28.0625 C-9.3725 28.0625 -11.6825 28.0625 -14.0625 28.0625 C-13.43636216 24.41877114 -12.4356497 21.21375221 -11.03125 17.796875 C-10.63292969 16.82492188 -10.23460937 15.85296875 -9.82421875 14.8515625 C-9.19966797 13.34722656 -9.19966797 13.34722656 -8.5625 11.8125 C-8.14613281 10.79414062 -7.72976562 9.77578125 -7.30078125 8.7265625 C-3.73685761 0.0762624 -3.73685761 0.0762624 0 0 Z M-1.0625 11.0625 C-1.3925 12.7125 -1.7225 14.3625 -2.0625 16.0625 C-0.7425 15.7325 0.5775 15.4025 1.9375 15.0625 C1.2775 13.7425 0.6175 12.4225 -0.0625 11.0625 C-0.3925 11.0625 -0.7225 11.0625 -1.0625 11.0625 Z " fill="#000101" transform="translate(140.0625,77.9375)"/>
<path d="M0 0 C5.28 0 10.56 0 16 0 C16 2.31 16 4.62 16 7 C13.03 7 10.06 7 7 7 C7 8.32 7 9.64 7 11 C9.97 11 12.94 11 16 11 C16 12.98 16 14.96 16 17 C13.03 17 10.06 17 7 17 C7 18.32 7 19.64 7 21 C9.97 21 12.94 21 16 21 C16 23.31 16 25.62 16 28 C13.52076199 28.02685095 11.0418116 28.04676547 8.5625 28.0625 C7.85544922 28.07087891 7.14839844 28.07925781 6.41992188 28.08789062 C4.61306441 28.09653588 2.80612397 28.05220011 1 28 C0 27 0 27 -0.11352539 24.40795898 C-0.10828857 23.28204346 -0.10305176 22.15612793 -0.09765625 20.99609375 C-0.09443359 19.78115234 -0.09121094 18.56621094 -0.08789062 17.31445312 C-0.07951172 16.03505859 -0.07113281 14.75566406 -0.0625 13.4375 C-0.05798828 12.15423828 -0.05347656 10.87097656 -0.04882812 9.54882812 C-0.03699555 6.3658658 -0.01905944 3.18292726 0 0 Z " fill="#010101" transform="translate(131,121)"/>
<path d="M0 0 C5.28 0 10.56 0 16 0 C16 1.98 16 3.96 16 6 C15 7 15 7 11.4375 7.0625 C10.303125 7.041875 9.16875 7.02125 8 7 C7.67 8.32 7.34 9.64 7 11 C9.64 11 12.28 11 15 11 C15 12.98 15 14.96 15 17 C12.36 17 9.72 17 7 17 C7 18.32 7 19.64 7 21 C9.97 21 12.94 21 16 21 C16.04254356 22.99954746 16.04080783 25.00041636 16 27 C15 28 15 28 11.62109375 28.09765625 C10.22652508 28.09191424 8.83198403 28.07890228 7.4375 28.0625 C4.983125 28.041875 2.52875 28.02125 0 28 C0 18.76 0 9.52 0 0 Z " fill="#010101" transform="translate(215,78)"/>
<path d="M0 0 C0.99 0.66 1.98 1.32 3 2 C2.67 3.65 2.34 5.3 2 7 C-1.28976808 8.09658936 -2.71303767 7.79953138 -6 7 C-6 7.66 -6 8.32 -6 9 C-4.27614494 10.29320124 -4.27614494 10.29320124 -2.125 11.5 C0.25362486 12.89818809 2.03792084 14.03792084 4 16 C4.44678306 20.02104757 4.6808704 22.13756416 2.125 25.375 C-2.06929213 28.58239987 -5.85331207 28.53241599 -11 28 C-14.0625 26.5 -14.0625 26.5 -16 25 C-15.67 23.35 -15.34 21.7 -15 20 C-14.01 19.67 -13.02 19.34 -12 19 C-11.34 19.33 -10.68 19.66 -10 20 C-8.00039988 20.039992 -5.99952758 20.04346799 -4 20 C-6.62481477 17.08353914 -9.72853238 15.13356584 -13 13 C-14 12 -14 12 -14.375 8.1875 C-14.31067516 4.93032407 -14.14551965 4.18776729 -12.0625 1.5 C-8.01919005 -0.48039671 -4.43568016 -0.71436048 0 0 Z " fill="#000000" transform="translate(270,78)"/>
<path d="M0 0 C0.99 0.66 1.98 1.32 3 2 C2.67 3.65 2.34 5.3 2 7 C-1.01490557 8.00496852 -3.04181692 8.10335303 -6.1875 8.0625 C-7.08855469 8.05347656 -7.98960938 8.04445313 -8.91796875 8.03515625 C-9.60503906 8.02355469 -10.29210938 8.01195313 -11 8 C-12.26817539 13.44857154 -12.26817539 13.44857154 -10.625 18.5 C-7.24640265 20.43062706 -4.83280319 20.195688 -1.0234375 19.84765625 C-0.35570313 19.89792969 0.31203125 19.94820312 1 20 C3 23 3 23 3 26 C-1.33653715 28.4527925 -5.10716209 28.68925195 -10 28 C-14.35680814 25.78049397 -17.39707297 23.1454023 -20 19 C-21.29197054 14.72034758 -21.24423291 11.85731597 -19.5 7.8125 C-15.18102135 0.24694215 -8.31200873 -1.24970761 0 0 Z " fill="#000001" transform="translate(51,78)"/>
<path d="M0 0 C2.5 1 2.5 1 4 2 C3.34 3.98 2.68 5.96 2 8 C-0.64 7.67 -3.28 7.34 -6 7 C-6 7.66 -6 8.32 -6 9 C-5.45730469 9.24234375 -4.91460937 9.4846875 -4.35546875 9.734375 C3.45410628 13.39291465 3.45410628 13.39291465 5 17 C4.87655181 20.51827355 4.73585873 22.99655627 2.625 25.875 C-1.19155176 28.51722814 -5.53515648 28.50450209 -10 28 C-13.5 26.5 -13.5 26.5 -16 25 C-15.1875 22.5625 -15.1875 22.5625 -14 20 C-9.74938644 18.58312881 -7.28148375 19.80679961 -3 21 C-4.1728427 17.48147191 -4.83086877 17.25274673 -7.9375 15.5 C-10.96692226 13.78461026 -11.99489922 13.00765117 -14 10 C-13.91956698 6.21964825 -13.43199957 4.49745405 -10.9375 1.625 C-6.88574081 -0.6163987 -4.60723732 -0.43878451 0 0 Z " fill="#000000" transform="translate(248,78)"/>
<path d="M0 0 C13 0 13 0 18 3 C19.62220646 6.24441291 19.70159132 9.50540703 19 13 C15.9587721 16.47568903 14.25711841 17.88360015 9.625 18.3125 C8.75875 18.209375 7.8925 18.10625 7 18 C7.01160156 18.63808594 7.02320313 19.27617187 7.03515625 19.93359375 C7.04417969 20.75988281 7.05320312 21.58617187 7.0625 22.4375 C7.07410156 23.26121094 7.08570313 24.08492187 7.09765625 24.93359375 C7 27 7 27 6 28 C4.02 28 2.04 28 0 28 C0 18.76 0 9.52 0 0 Z M7 6 C7 7.98 7 9.96 7 12 C8.65 11.67 10.3 11.34 12 11 C12 9.68 12 8.36 12 7 C10.35 6.67 8.7 6.34 7 6 Z " fill="#000000" transform="translate(32,121)"/>
<path d="M0 0 C5.19689119 -0.61658031 5.19689119 -0.61658031 8 0 C10.17596146 2.06225326 11.60042821 4.36234546 13 7 C13.268125 6.4946875 13.53625 5.989375 13.8125 5.46875 C15.07576515 3.37438935 16.22083453 1.68619246 18 0 C20.90516143 -0.63902812 22.99278126 -0.35678866 26 0 C24.7351263 3.51964857 23.25475067 6.08493281 20.9375 9 C17.48868583 13.95557764 17.24952398 18.44815639 17.10546875 24.375 C17 27 17 27 16 28 C14.00041636 28.04080783 11.99954746 28.04254356 10 28 C9.21247286 24.84989146 9.03384362 22.76309465 9.5 19.5 C9.67923526 13.65244962 5.31558084 9.19726957 1.96875 4.7578125 C0 2 0 2 0 0 Z " fill="#010101" transform="translate(75,121)"/>
<path d="M0 0 C4 2 4 2 6 4 C5.69371213 7.54399257 4.10501726 9.25057141 1.62109375 11.671875 C0.94755859 12.33574219 0.27402344 12.99960938 -0.41992188 13.68359375 C-1.48049805 14.70646484 -1.48049805 14.70646484 -2.5625 15.75 C-3.27341797 16.44738281 -3.98433594 17.14476562 -4.71679688 17.86328125 C-6.47130714 19.5824658 -8.23243352 21.29425872 -10 23 C-14.00374431 21.16307611 -16.71957934 18.50882084 -19.75 15.375 C-20.25660156 14.859375 -20.76320313 14.34375 -21.28515625 13.8125 C-22.52803902 12.54616661 -23.76465276 11.2736856 -25 10 C-23.84826645 7.53199953 -22.95216435 5.95216435 -21 4 C-20.01 4 -19.02 4 -18 4 C-18 4.66 -18 5.32 -18 6 C-17.4225 6.28875 -16.845 6.5775 -16.25 6.875 C-14.16666667 7.91666667 -12.08333333 8.95833333 -10 10 C-6.7 6.7 -3.4 3.4 0 0 Z " fill="#4D6BAF" transform="translate(482,192)"/>
<path d="M0 0 C6.6 0 13.2 0 20 0 C20 1.98 20 3.96 20 6 C18.35 6.33 16.7 6.66 15 7 C14.97494385 7.60062256 14.9498877 8.20124512 14.92407227 8.82006836 C14.8084472 11.52611437 14.68557064 14.23178283 14.5625 16.9375 C14.50352539 18.35579102 14.50352539 18.35579102 14.44335938 19.80273438 C14.40146484 20.70185547 14.35957031 21.60097656 14.31640625 22.52734375 C14.26141968 23.77632446 14.26141968 23.77632446 14.20532227 25.05053711 C14 27 14 27 13 28 C11.00041636 28.04080783 8.99954746 28.04254356 7 28 C4.2 12.6 4.2 12.6 7 7 C5.5459375 7.0309375 5.5459375 7.0309375 4.0625 7.0625 C1 7 1 7 0 6 C0 4.02 0 2.04 0 0 Z " fill="#010102" transform="translate(174,121)"/>
<path d="M0 0 C6.6 0 13.2 0 20 0 C20 1.98 20 3.96 20 6 C19 7 19 7 15.9375 7.0625 C14.968125 7.041875 13.99875 7.02125 13 7 C13.05329468 7.90093384 13.05329468 7.90093384 13.10766602 8.82006836 C13.26468681 11.52559686 13.41369797 14.23150757 13.5625 16.9375 C13.61857422 17.88302734 13.67464844 18.82855469 13.73242188 19.80273438 C13.78076172 20.70185547 13.82910156 21.60097656 13.87890625 22.52734375 C13.9260376 23.35999756 13.97316895 24.19265137 14.02172852 25.05053711 C14 27 14 27 13 28 C10 28.125 10 28.125 7 28 C5.41596476 26.41596476 5.78025065 24.7228362 5.68359375 22.52734375 C5.62075195 21.17866211 5.62075195 21.17866211 5.55664062 19.80273438 C5.51732422 18.85720703 5.47800781 17.91167969 5.4375 16.9375 C5.39431641 15.98810547 5.35113281 15.03871094 5.30664062 14.06054688 C5.20020724 11.70718647 5.09818992 9.35371646 5 7 C3.35 7 1.7 7 0 7 C0 4.69 0 2.38 0 0 Z " fill="#010101" transform="translate(108,78)"/>
<path d="M0 0 C2.31 0 4.62 0 7 0 C7 6.93 7 13.86 7 21 C9.97 21 12.94 21 16 21 C16.04254356 22.99954746 16.04080783 25.00041636 16 27 C15 28 15 28 11.62109375 28.09765625 C10.22652508 28.09191424 8.83198403 28.07890228 7.4375 28.0625 C4.983125 28.041875 2.52875 28.02125 0 28 C0 18.76 0 9.52 0 0 Z " fill="#010101" transform="translate(197,78)"/>
<path d="M0 0 C18.33333333 0 36.66666667 0 55 0 C55 1.32 55 2.64 55 4 C36.52 4 18.04 4 -1 4 C-0.67 2.68 -0.34 1.36 0 0 Z " fill="#C7CECE" transform="translate(148,220)"/>
<path d="M0 0 C-0.99 2.97 -1.98 5.94 -3 9 C-0.12133744 9.13478935 -0.12133744 9.13478935 3 8 C4.74719343 5.49568941 5.90004088 2.84048268 7 0 C8.65 0 10.3 0 12 0 C11.690625 0.763125 11.38125 1.52625 11.0625 2.3125 C10.32106407 4.18789677 9.63771783 6.08684652 9 8 C13.29 8.33 17.58 8.66 22 9 C22.99 6.03 23.98 3.06 25 0 C25.99 0.33 26.98 0.66 28 1 C27.01 3.64 26.02 6.28 25 9 C27.64 9 30.28 9 33 9 C33 9.66 33 10.32 33 11 C15.84 11 -1.32 11 -19 11 C-19 10.67 -19 10.34 -19 10 C-17.95199219 9.92652344 -17.95199219 9.92652344 -16.8828125 9.8515625 C-15.97273438 9.77679688 -15.06265625 9.70203125 -14.125 9.625 C-13.22007813 9.55539063 -12.31515625 9.48578125 -11.3828125 9.4140625 C-8.82058097 9.20431868 -8.82058097 9.20431868 -7 7 C-7 5.68 -7 4.36 -7 3 C-4.73338012 -0.17326783 -4.14853831 0 0 0 Z " fill="#F3F5F3" transform="translate(87,208)"/>
<path d="M0 0 C4.29 0 8.58 0 13 0 C13.70466321 5.8134715 13.70466321 5.8134715 13 9 C10.64767696 11.55350857 8.00631739 13.28881488 5 15 C4.67 14.67 4.34 14.34 4 14 C3.67 14.66 3.34 15.32 3 16 C2.34 16 1.68 16 1 16 C1 15.34 1 14.68 1 14 C0.34 14 -0.32 14 -1 14 C-1 14.66 -1 15.32 -1 16 C-1.99 16 -2.98 16 -4 16 C-2.97826842 10.57391091 -1.47397112 5.31911317 0 0 Z " fill="#F4F1EE" transform="translate(194,202)"/>
<path d="M0 0 C0.66 0.33 1.32 0.66 2 1 C0.125 5.875 0.125 5.875 -1 7 C-2.68801985 7.09353163 -4.37995207 7.11744791 -6.07055664 7.11352539 C-7.15160172 7.11344986 -8.23264679 7.11337433 -9.34645081 7.11329651 C-11.110485 7.10555458 -11.110485 7.10555458 -12.91015625 7.09765625 C-14.10732773 7.0962413 -15.30449921 7.09482635 -16.53794861 7.09336853 C-20.37949066 7.08774979 -24.22097543 7.07519411 -28.0625 7.0625 C-30.65950437 7.05748741 -33.25650965 7.05292409 -35.85351562 7.04882812 C-42.23569679 7.03777427 -48.6178443 7.02101792 -55 7 C-55.33 7.66 -55.66 8.32 -56 9 C-56.66 7.68 -57.32 6.36 -58 5 C-56.32581068 3.32581068 -54.27550694 3.85803353 -51.97705078 3.84228516 C-50.90568878 3.83202301 -49.83432678 3.82176086 -48.73049927 3.81118774 C-46.98058182 3.80023575 -46.98058182 3.80023575 -45.1953125 3.7890625 C-42.75129536 3.7609965 -40.30728502 3.73233205 -37.86328125 3.703125 C-33.98974782 3.66180731 -30.11634191 3.6249412 -26.24267578 3.59863281 C-22.51828368 3.57111151 -18.79447997 3.52523888 -15.0703125 3.4765625 C-13.90774933 3.47330963 -12.74518616 3.47005676 -11.5473938 3.46670532 C-9.93089432 3.44185562 -9.93089432 3.44185562 -8.28173828 3.41650391 C-6.85729904 3.40437363 -6.85729904 3.40437363 -5.40408325 3.39199829 C-2.61539255 2.93728775 -1.72896708 2.17835871 0 0 Z " fill="#51B04C" transform="translate(123,215)"/>
<path d="M0 0 C14.85 0 29.7 0 45 0 C44.34 1.32 43.68 2.64 43 4 C28.48 4 13.96 4 -1 4 C-0.67 2.68 -0.34 1.36 0 0 Z " fill="#E18420" transform="translate(39,203)"/>
<path d="M0 0 C5.28 0 10.56 0 16 0 C16 3.63 16 7.26 16 11 C10.72 11 5.44 11 0 11 C0 7.37 0 3.74 0 0 Z " fill="#4C6AB0" transform="translate(409,182)"/>
<path d="M0 0 C5.28 0 10.56 0 16 0 C16 3.63 16 7.26 16 11 C10.72 11 5.44 11 0 11 C0 7.37 0 3.74 0 0 Z " fill="#4B6AB1" transform="translate(382,182)"/>
<path d="M0 0 C3.96 0 7.92 0 12 0 C11.45144652 4.571279 10.58255197 8.67435795 9 13 C5.04 13 1.08 13 -3 13 C-2.01 8.71 -1.02 4.42 0 0 Z " fill="#F9F9F9" transform="translate(156,202)"/>
<path d="M0 0 C3.5625 0.1875 3.5625 0.1875 5.5625 2.1875 C6.2225 1.5275 6.8825 0.8675 7.5625 0.1875 C10.25089385 -0.08241906 12.85391936 0.10012643 15.5625 0.1875 C15.5625 3.1575 15.5625 6.1275 15.5625 9.1875 C9.5078125 9.3828125 9.5078125 9.3828125 7.5625 9.1875 C6.9025 8.5275 6.2425 7.8675 5.5625 7.1875 C4.9025 7.8475 4.2425 8.5075 3.5625 9.1875 C0.9375 9.3125 0.9375 9.3125 -1.4375 9.1875 C-1.4375 10.5075 -1.4375 11.8275 -1.4375 13.1875 C-2.4275 13.1875 -3.4175 13.1875 -4.4375 13.1875 C-4.46436553 11.20840602 -4.48383375 9.22921029 -4.5 7.25 C-4.51160156 6.14785156 -4.52320312 5.04570312 -4.53515625 3.91015625 C-4.38987618 -0.14025222 -4.16005118 0.22691188 0 0 Z M-0.4375 3.1875 C-0.4375 4.1775 -0.4375 5.1675 -0.4375 6.1875 C0.5525 6.1875 1.5425 6.1875 2.5625 6.1875 C2.5625 5.1975 2.5625 4.2075 2.5625 3.1875 C1.5725 3.1875 0.5825 3.1875 -0.4375 3.1875 Z M9.5625 3.1875 C9.5625 4.5075 9.5625 5.8275 9.5625 7.1875 C10.5525 6.8575 11.5425 6.5275 12.5625 6.1875 C12.5625 5.1975 12.5625 4.2075 12.5625 3.1875 C11.5725 3.1875 10.5825 3.1875 9.5625 3.1875 Z " fill="#020203" transform="translate(113.4375,177.8125)"/>
<path d="M0 0 C5.94 0 11.88 0 18 0 C17.125 8.875 17.125 8.875 16 10 C13.46950598 10.07313567 10.96695163 10.09247527 8.4375 10.0625 C7.72658203 10.05798828 7.01566406 10.05347656 6.28320312 10.04882812 C4.52209987 10.03700864 2.76103964 10.01907263 1 10 C0.67 11.98 0.34 13.96 0 16 C-0.99 16 -1.98 16 -3 16 C-2.67 13.03 -2.34 10.06 -2 7 C5.92 6.505 5.92 6.505 14 6 C14.33 5.01 14.66 4.02 15 3 C10.05 3 5.1 3 0 3 C0 2.01 0 1.02 0 0 Z " fill="#77797B" transform="translate(173,202)"/>
<path d="M0 0 C11.22 0 22.44 0 34 0 C34 1.32 34 2.64 34 4 C30.4591786 5.1802738 27.37644627 5.0238386 23.70703125 4.87890625 C23.00100266 4.85529526 22.29497406 4.83168427 21.56755066 4.80735779 C19.31565493 4.73087055 17.06411613 4.64678253 14.8125 4.5625 C13.28452259 4.50926432 11.75652784 4.45652401 10.22851562 4.40429688 C6.48545165 4.27527576 2.74268981 4.13943788 -1 4 C-0.67 2.68 -0.34 1.36 0 0 Z " fill="#D67F1D" transform="translate(102,203)"/>
<path d="M0 0 C0.99 0 1.98 0 3 0 C2.45144652 4.571279 1.58255197 8.67435795 0 13 C3.96 13 7.92 13 12 13 C12.309375 11.5975 12.61875 10.195 12.9375 8.75 C13.58349094 5.82150775 14.26010787 2.90624297 15 0 C15.99 0 16.98 0 18 0 C17.39523897 5.68475366 15.90812185 10.60748173 14 16 C8.06 16 2.12 16 -4 16 C-1.125 2.25 -1.125 2.25 0 0 Z " fill="#6C7073" transform="translate(153,202)"/>
<path d="M0 0 C0.99 0 1.98 0 3 0 C3 4.62 3 9.24 3 14 C0.36 14 -2.28 14 -5 14 C-5.33 13.01 -5.66 12.02 -6 11 C-6.66 11 -7.32 11 -8 11 C-8.33 11.99 -8.66 12.98 -9 14 C-11.375 14.125 -11.375 14.125 -14 14 C-16 12 -16 12 -16.25 9.5 C-16 7 -16 7 -14 5 C-11.375 4.875 -11.375 4.875 -9 5 C-8.67 5.99 -8.34 6.98 -8 8 C-7.34 8 -6.68 8 -6 8 C-5.67 7.01 -5.34 6.02 -5 5 C-3.68 5 -2.36 5 -1 5 C-0.67 3.35 -0.34 1.7 0 0 Z M-12 7 C-12.33 8.32 -12.66 9.64 -13 11 C-12.01 11 -11.02 11 -10 11 C-10.33 9.68 -10.66 8.36 -11 7 C-11.33 7 -11.66 7 -12 7 Z M-3 8 C-3.33 8.66 -3.66 9.32 -4 10 C-3.67 10.66 -3.34 11.32 -3 12 C-2.01 11.67 -1.02 11.34 0 11 C0 10.01 0 9.02 0 8 C-0.99 8 -1.98 8 -3 8 Z " fill="#010102" transform="translate(214,173)"/>
<path d="M0 0 C1.61841797 0.08701172 1.61841797 0.08701172 3.26953125 0.17578125 C4.35621094 0.22089844 5.44289063 0.26601562 6.5625 0.3125 C7.39394531 0.37050781 8.22539063 0.42851562 9.08203125 0.48828125 C10.08203125 3.48828125 10.08203125 3.48828125 8.64453125 6.67578125 C7.87109375 8.06796875 7.87109375 8.06796875 7.08203125 9.48828125 C2.79203125 9.48828125 -1.49796875 9.48828125 -5.91796875 9.48828125 C-5.91796875 4.51210977 -5.3918136 0.90224458 0 0 Z " fill="#369F33" transform="translate(101.91796875,207.51171875)"/>
<path d="M0 0 C1.09570312 0.00902344 2.19140625 0.01804688 3.3203125 0.02734375 C4.16335937 0.03894531 5.00640625 0.05054688 5.875 0.0625 C5.39740234 0.98482422 5.39740234 0.98482422 4.91015625 1.92578125 C3.91697209 3.97586327 3.40676892 5.85945732 2.875 8.0625 C1.875 9.0625 1.875 9.0625 -1.06640625 9.16015625 C-2.85884766 9.14275391 -2.85884766 9.14275391 -4.6875 9.125 C-6.48380859 9.11146484 -6.48380859 9.11146484 -8.31640625 9.09765625 C-9.24324219 9.08605469 -10.17007813 9.07445312 -11.125 9.0625 C-10.8053125 8.44761719 -10.485625 7.83273438 -10.15625 7.19921875 C-9.05055531 5.1111749 -9.05055531 5.1111749 -8.625 2.875 C-8.46 2.276875 -8.295 1.67875 -8.125 1.0625 C-5.36047967 -0.31976016 -3.0788637 -0.03275387 0 0 Z " fill="#D99040" transform="translate(77.125,207.9375)"/>
<path d="M0 0 C1.09570312 0.00902344 2.19140625 0.01804688 3.3203125 0.02734375 C4.16335937 0.03894531 5.00640625 0.05054688 5.875 0.0625 C5.3770163 3.79737777 5.00008244 5.87487635 2.875 9.0625 C1.555 9.0625 0.235 9.0625 -1.125 9.0625 C-1.125 8.0725 -1.125 7.0825 -1.125 6.0625 C-2.775 6.0625 -4.425 6.0625 -6.125 6.0625 C-6.455 7.3825 -6.785 8.7025 -7.125 10.0625 C-8.445 10.0625 -9.765 10.0625 -11.125 10.0625 C-10.5704626 6.73527559 -9.88486957 3.9611087 -8.125 1.0625 C-5.36047967 -0.31976016 -3.0788637 -0.03275387 0 0 Z " fill="#DF8322" transform="translate(61.125,207.9375)"/>
<path d="M0 0 C4.62 0 9.24 0 14 0 C13.67 1.65 13.34 3.3 13 5 C11.081875 5.12375 11.081875 5.12375 9.125 5.25 C6.94666582 5.45869931 6.94666582 5.45869931 5 6 C3.4100567 7.92064793 3.4100567 7.92064793 3 10 C1.02 10 -0.96 10 -3 10 C-2.46599103 6.08393425 -1.80330533 3.60661066 0 0 Z " fill="#D08B42" transform="translate(36,208)"/>
<path d="M0 0 C0.66 0 1.32 0 2 0 C2 0.99 2 1.98 2 3 C6.95 3 11.9 3 17 3 C16.67 4.32 16.34 5.64 16 7 C10.72 7 5.44 7 0 7 C-0.33 9.97 -0.66 12.94 -1 16 C-0.34 16.33 0.32 16.66 1 17 C0.01 17 -0.98 17 -2 17 C-3.18594057 12.76674194 -2.71869389 9.89604576 -1.5625 5.6875 C-1.27503906 4.61886719 -0.98757812 3.55023438 -0.69140625 2.44921875 C-0.46324219 1.64097656 -0.23507813 0.83273438 0 0 Z " fill="#E3E3E3" transform="translate(171,202)"/>
<path d="M0 0 C4.29 0 8.58 0 13 0 C14.4783226 2.95664519 14.06032783 5.74229737 14 9 C13.01 9 12.02 9 11 9 C11 7.02 11 5.04 11 3 C10.01 3.495 10.01 3.495 9 4 C8.34444881 6.52733235 8.34444881 6.52733235 8 9 C7.01 8.67 6.02 8.34 5 8 C5 6.35 5 4.7 5 3 C4.67 3 4.34 3 4 3 C3.67 4.98 3.34 6.96 3 9 C2.01 9 1.02 9 0 9 C0 6.03 0 3.06 0 0 Z " fill="#010202" transform="translate(183,178)"/>
<path d="M0 0 C1.95803507 -0.05389087 3.91648909 -0.09274217 5.875 -0.125 C7.51082031 -0.15980469 7.51082031 -0.15980469 9.1796875 -0.1953125 C12 0 12 0 14 2 C14.125 5.625 14.125 5.625 14 9 C13.01 9 12.02 9 11 9 C10.67 7.02 10.34 5.04 10 3 C9.67 3 9.34 3 9 3 C8.67 4.98 8.34 6.96 8 9 C7.01 9 6.02 9 5 9 C4.67 7.02 4.34 5.04 4 3 C3.67 4.98 3.34 6.96 3 9 C2.01 9 1.02 9 0 9 C0 6.03 0 3.06 0 0 Z " fill="#000001" transform="translate(139,178)"/>
<path d="M0 0 C0.66 0 1.32 0 2 0 C2.33 1.65 2.66 3.3 3 5 C3.804375 5.144375 4.60875 5.28875 5.4375 5.4375 C8 6 8 6 9 7 C9.1875 9.4375 9.1875 9.4375 9 12 C7 14 7 14 3.4375 14.1875 C0 14 0 14 -1 13 C-1.09873816 11.00200428 -1.12971799 9.00042842 -1.125 7 C-1.12757813 5.906875 -1.13015625 4.81375 -1.1328125 3.6875 C-1 1 -1 1 0 0 Z M3 8 C3.33 9.32 3.66 10.64 4 12 C4.66 11.67 5.32 11.34 6 11 C6 10.01 6 9.02 6 8 C5.01 8 4.02 8 3 8 Z " fill="#020304" transform="translate(289,173)"/>
<path d="M0 0 C7.66666667 0 15.33333333 0 23 0 C23 0.33 23 0.66 23 1 C21.35 1 19.7 1 18 1 C18 1.66 18 2.32 18 3 C18.5775 2.79375 19.155 2.5875 19.75 2.375 C22 2 22 2 26 4 C17.09 4 8.18 4 -1 4 C-0.67 2.68 -0.34 1.36 0 0 Z " fill="#C2CBCC" transform="translate(148,220)"/>
<path d="M0 0 C3.4375 0.1875 3.4375 0.1875 4.4375 1.1875 C4.5625 4.6875 4.5625 4.6875 4.4375 8.1875 C3.4375 9.1875 3.4375 9.1875 0 9.375 C-3.5625 9.1875 -3.5625 9.1875 -5.5625 7.1875 C-5.8125 4.6875 -5.8125 4.6875 -5.5625 2.1875 C-3.5625 0.1875 -3.5625 0.1875 0 0 Z M-2.5625 3.1875 C-2.2325 4.5075 -1.9025 5.8275 -1.5625 7.1875 C-0.9025 6.8575 -0.2425 6.5275 0.4375 6.1875 C0.4375 5.1975 0.4375 4.2075 0.4375 3.1875 C-0.5525 3.1875 -1.5425 3.1875 -2.5625 3.1875 Z " fill="#020203" transform="translate(263.5625,177.8125)"/>
<path d="M0 0 C0 2.97 0 5.94 0 9 C-6.75 9.125 -6.75 9.125 -9 8 C-10.09036928 5.0262656 -10.03864166 4.11592499 -9 1 C-6.04335481 -0.4783226 -3.25770263 -0.06032783 0 0 Z M-6 3 C-5.67 4.32 -5.34 5.64 -5 7 C-4.34 6.67 -3.68 6.34 -3 6 C-3 5.01 -3 4.02 -3 3 C-3.99 3 -4.98 3 -6 3 Z " fill="#010202" transform="translate(287,178)"/>
<path d="M0 0 C0 2.97 0 5.94 0 9 C-6.75 9.125 -6.75 9.125 -9 8 C-10.09036928 5.0262656 -10.03864166 4.11592499 -9 1 C-6.04335481 -0.4783226 -3.25770263 -0.06032783 0 0 Z M-6 3 C-5.67 4.32 -5.34 5.64 -5 7 C-4.34 6.67 -3.68 6.34 -3 6 C-3 5.01 -3 4.02 -3 3 C-3.99 3 -4.98 3 -6 3 Z " fill="#010202" transform="translate(43,178)"/>
<path d="M0 0 C0.66 0 1.32 0 2 0 C4.91605839 4.45985401 4.91605839 4.45985401 6 7 C5.35999311 9.88003102 4.23565468 10.78715061 2.0625 12.75 C0 14 0 14 -3 14 C-2.68872484 12.41642541 -2.37592711 10.83315007 -2.0625 9.25 C-1.80146484 7.92742187 -1.80146484 7.92742187 -1.53515625 6.578125 C-1.07631512 4.36764947 -0.56663926 2.18487932 0 0 Z " fill="#BD7734" transform="translate(199,203)"/>
<path d="M0 0 C2.5 0.25 2.5 0.25 4.5 2.25 C4.125 5.875 4.125 5.875 3.5 9.25 C0.625 9.375 0.625 9.375 -2.5 9.25 C-4.5 7.25 -4.5 7.25 -4.75 4.75 C-4.40058445 1.25584452 -3.49415548 0.34941555 0 0 Z " fill="#010202" transform="translate(307.5,177.75)"/>
<path d="M0 0 C6.93 0 13.86 0 21 0 C21 0.99 21 1.98 21 3 C13.74 3 6.48 3 -1 3 C-0.67 2.01 -0.34 1.02 0 0 Z " fill="#EB911A" transform="translate(102,203)"/>
<path d="M0 0 C1.670625 0.061875 1.670625 0.061875 3.375 0.125 C3.375 3.095 3.375 6.065 3.375 9.125 C0 9.25 0 9.25 -3.625 9.125 C-5.625 7.125 -5.625 7.125 -5.875 4.625 C-5.45054733 0.38047335 -4.12667778 0.14229923 0 0 Z M-2.625 3.125 C-2.295 4.445 -1.965 5.765 -1.625 7.125 C-0.965 6.795 -0.305 6.465 0.375 6.125 C0.375 5.135 0.375 4.145 0.375 3.125 C-0.615 3.125 -1.605 3.125 -2.625 3.125 Z " fill="#000000" transform="translate(244.625,177.875)"/>
<path d="M0 0 C16.83 0.33 33.66 0.66 51 1 C50.67 1.66 50.34 2.32 50 3 C48.89140625 2.98839844 47.7828125 2.97679687 46.640625 2.96484375 C45.17708502 2.95546208 43.71354322 2.94636229 42.25 2.9375 C41.52039063 2.92912109 40.79078125 2.92074219 40.0390625 2.91210938 C36.51329442 2.89608316 33.38965084 3.04707287 30 4 C30 3.34 30 2.68 30 2 C29.09636719 2.08378906 28.19273438 2.16757813 27.26171875 2.25390625 C25.49248047 2.40666016 25.49248047 2.40666016 23.6875 2.5625 C22.51574219 2.66691406 21.34398437 2.77132812 20.13671875 2.87890625 C17 3 17 3 14 2 C13.67 2.66 13.34 3.32 13 4 C13 3.34 13 2.68 13 2 C8.71 2 4.42 2 0 2 C0 1.34 0 0.68 0 0 Z " fill="#C4B6A1" transform="translate(37,206)"/>
<path d="M0 0 C0.928125 0.0825 1.85625 0.165 2.8125 0.25 C1.75374926 3.65312738 0.80347846 6.26353231 -1.1875 9.25 C-4.3125 9.4375 -4.3125 9.4375 -7.1875 9.25 C-6.4759674 4.1269653 -5.64653175 0.44286524 0 0 Z " fill="#3EA23B" transform="translate(91.1875,207.75)"/>
<path d="M0 0 C0.78375 0.04125 1.5675 0.0825 2.375 0.125 C4.46730769 4.55576923 4.46730769 4.55576923 4 7.4375 C3.79375 7.994375 3.5875 8.55125 3.375 9.125 C0.5 9.25 0.5 9.25 -2.625 9.125 C-4.625 7.125 -4.625 7.125 -4.875 4.625 C-4.51649553 1.03995533 -3.59522993 0.17120143 0 0 Z " fill="#010101" transform="translate(222.625,177.875)"/>
<path d="M0 0 C2.64 0 5.28 0 8 0 C9.4783226 2.95664519 9.06032783 5.74229737 9 9 C8.01 9 7.02 9 6 9 C6 7.02 6 5.04 6 3 C5.01 3.495 5.01 3.495 4 4 C3.34444881 6.52733235 3.34444881 6.52733235 3 9 C2.01 9 1.02 9 0 9 C0 6.03 0 3.06 0 0 Z " fill="#010102" transform="translate(86,178)"/>
<path d="M0 0 C3.125 0.375 3.125 0.375 6 1 C6 3.64 6 6.28 6 9 C3.125 9.125 3.125 9.125 0 9 C-2 7 -2 7 -2.25 4.5 C-2 2 -2 2 0 0 Z " fill="#010102" transform="translate(156,178)"/>
<path d="M0 0 C2.4375 0.1875 2.4375 0.1875 3.4375 1.1875 C3.57865161 3.85808851 3.47997107 6.51182238 3.4375 9.1875 C0.5625 9.3125 0.5625 9.3125 -2.5625 9.1875 C-4.5625 7.1875 -4.5625 7.1875 -4.8125 4.6875 C-4.45862826 1.14878262 -3.54553886 0.25942967 0 0 Z " fill="#010101" transform="translate(100.5625,177.8125)"/>
<path d="M0 0 C1.134375 0.020625 2.26875 0.04125 3.4375 0.0625 C4.9158226 3.01914519 4.49782783 5.80479737 4.4375 9.0625 C3.4475 9.0625 2.4575 9.0625 1.4375 9.0625 C1.4375 7.0825 1.4375 5.1025 1.4375 3.0625 C0.4475 3.5575 0.4475 3.5575 -0.5625 4.0625 C-1.21805119 6.58983235 -1.21805119 6.58983235 -1.5625 9.0625 C-2.5525 9.0625 -3.5425 9.0625 -4.5625 9.0625 C-4.66015625 2.91015625 -4.66015625 2.91015625 -4.5625 1.0625 C-3.5625 0.0625 -3.5625 0.0625 0 0 Z " fill="#010101" transform="translate(71.5625,177.9375)"/>
<path d="M0 0 C5.94 0 11.88 0 18 0 C18 1.32 18 2.64 18 4 C17.01 4.33 16.02 4.66 15 5 C15 4.34 15 3.68 15 3 C10.05 3 5.1 3 0 3 C0 2.01 0 1.02 0 0 Z " fill="#66686C" transform="translate(173,202)"/>
<path d="M0 0 C3.375 -0.1875 3.375 -0.1875 7 0 C9.29013653 3.4352048 9.17842973 4.985331 9 9 C8.01 9 7.02 9 6 9 C5.67 7.02 5.34 5.04 5 3 C4.67 3 4.34 3 4 3 C3.67 4.98 3.34 6.96 3 9 C2.01 9 1.02 9 0 9 C0 6.03 0 3.06 0 0 Z " fill="#010102" transform="translate(163,178)"/>
<path d="M0 0 C0.99 0.33 1.98 0.66 3 1 C3 1.99 3 2.98 3 4 C3.66 4 4.32 4 5 4 C5.33 2.68 5.66 1.36 6 0 C6.66 0 7.32 0 8 0 C7.40895235 4.84659077 6.02055843 8.60748167 4 13 C3.01 13 2.02 13 1 13 C1.020625 11.96875 1.04125 10.9375 1.0625 9.875 C1.00723339 6.44847031 0.65449285 3.35427586 0 0 Z " fill="#000000" transform="translate(130,178)"/>
<path d="M0 0 C0.99 0.33 1.98 0.66 3 1 C2.01 3.64 1.02 6.28 0 9 C2.64 9 5.28 9 8 9 C8 9.66 8 10.32 8 11 C0.26291674 11.12152487 -7.307359 10.84800767 -15 10 C-15 9.67 -15 9.34 -15 9 C-11.04 9 -7.08 9 -3 9 C-2.01 6.03 -1.02 3.06 0 0 Z " fill="#DDE0DD" transform="translate(112,208)"/>
<path d="M0 0 C2.97 0.33 5.94 0.66 9 1 C8.67 2.32 8.34 3.64 8 5 C6.00390625 6.08203125 6.00390625 6.08203125 3.5625 6.8125 C2.75941406 7.06644531 1.95632812 7.32039062 1.12890625 7.58203125 C-1 8 -1 8 -3 7 C-2.690625 6.401875 -2.38125 5.80375 -2.0625 5.1875 C-0.89790296 2.91043228 -0.89790296 2.91043228 0 0 Z " fill="#5BAB5A" transform="translate(98,209)"/>
<path d="M0 0 C0 0.66 0 1.32 0 2 C-1.65 2 -3.3 2 -5 2 C-5.66 3.65 -6.32 5.3 -7 7 C-5.02 7 -3.04 7 -1 7 C-3 9 -3 9 -4.9453125 9.1953125 C-6.96354167 9.13020833 -8.98177083 9.06510417 -11 9 C-10.67470941 6.07238473 -10.40430823 3.67384706 -8.875 1.125 C-5.98014 -0.611916 -3.29140103 -0.18630572 0 0 Z " fill="#37A634" transform="translate(123,208)"/>
<path d="M0 0 C1 1 1 1 1.1875 3.4375 C1 6 1 6 -1 8 C-3.5 8.3125 -3.5 8.3125 -6 8 C-8 5 -8 5 -7.75 2.375 C-7.5025 1.59125 -7.255 0.8075 -7 0 C-4.31633121 -1.3418344 -2.84719317 -0.73004953 0 0 Z M-4 1 C-4.33 2.32 -4.66 3.64 -5 5 C-4.01 5.33 -3.02 5.66 -2 6 C-2.33 4.35 -2.66 2.7 -3 1 C-3.33 1 -3.66 1 -4 1 Z " fill="#000101" transform="translate(65,179)"/>
<path d="M0 0 C1.15048828 0.15847412 2.30097656 0.31694824 3.48632812 0.48022461 C7.73493697 1.00978419 11.94123056 1.2146321 16.21875 1.31640625 C16.96209595 1.33718735 17.70544189 1.35796844 18.47131348 1.37937927 C20.81412748 1.44405128 23.15704024 1.50337092 25.5 1.5625 C27.10157216 1.60576384 28.70313482 1.64938044 30.3046875 1.69335938 C34.20302733 1.79964636 38.1014651 1.90113794 42 2 C42 2.33 42 2.66 42 3 C21.21 3.495 21.21 3.495 0 4 C0 2.68 0 1.36 0 0 Z " fill="#F3E1C9" transform="translate(93,200)"/>
<path d="M0 0 C-0.185625 0.5775 -0.37125 1.155 -0.5625 1.75 C-1.04182379 4.21509379 -0.65726837 5.61740218 0 8 C-1 9 -1 9 -4.0625 9.0625 C-5.031875 9.041875 -6.00125 9.02125 -7 9 C-6.814375 8.4225 -6.62875 7.845 -6.4375 7.25 C-5.95976454 4.79307475 -6.24270636 3.35602466 -7 1 C-4.53721199 -0.231394 -2.7204945 -0.07159196 0 0 Z " fill="#010202" transform="translate(234,178)"/>
<path d="M0 0 C1.32 0.66 2.64 1.32 4 2 C3.67 2.33 3.34 2.66 3 3 C9.93 3 16.86 3 24 3 C24.495 3.99 24.495 3.99 25 5 C12.79 5 0.58 5 -12 5 C-12 4.67 -12 4.34 -12 4 C-6.555 3.505 -6.555 3.505 -1 3 C-0.67 2.01 -0.34 1.02 0 0 Z " fill="#DBEAEC" transform="translate(42,219)"/>
<path d="M0 0 C0.99 0 1.98 0 3 0 C2.47606294 5.86809507 1.23891142 10.54873741 -1 16 C-1.99 16 -2.98 16 -4 16 C-3.31092878 12.34056353 -2.43178734 8.77558041 -1.4375 5.1875 C-1.16808594 4.21167969 -0.89867187 3.23585937 -0.62109375 2.23046875 C-0.41613281 1.49441406 -0.21117187 0.75835937 0 0 Z " fill="#6E7174" transform="translate(194,202)"/>
<path d="M0 0 C0.99 0.33 1.98 0.66 3 1 C3 4.96 3 8.92 3 13 C1.68 13 0.36 13 -1 13 C-1.07654536 8.48382401 -1.10228696 4.40914783 0 0 Z " fill="#07080A" transform="translate(45,173)"/>
<path d="M0 0 C1.09570312 0.00902344 2.19140625 0.01804688 3.3203125 0.02734375 C4.16335937 0.03894531 5.00640625 0.05054688 5.875 0.0625 C5.875 0.7225 5.875 1.3825 5.875 2.0625 C2.575 2.0625 -0.725 2.0625 -4.125 2.0625 C-4.125 2.7225 -4.125 3.3825 -4.125 4.0625 C-2.805 4.3925 -1.485 4.7225 -0.125 5.0625 C-3.095 5.0625 -6.065 5.0625 -9.125 5.0625 C-8.795 3.7425 -8.465 2.4225 -8.125 1.0625 C-5.36047967 -0.31976016 -3.0788637 -0.03275387 0 0 Z " fill="#E48520" transform="translate(77.125,207.9375)"/>
<path d="M0 0 C0.99 0 1.98 0 3 0 C3.66 0.66 4.32 1.32 5 2 C5.33 1.34 5.66 0.68 6 0 C6.99 0 7.98 0 9 0 C7.94124926 3.40312738 6.99097846 6.01353231 5 9 C4.34 9 3.68 9 3 9 C0 3.375 0 3.375 0 0 Z " fill="#010202" transform="translate(249,178)"/>
<path d="M0 0 C0.99 0 1.98 0 3 0 C4.11658501 4.68965706 3.80619523 7.53763531 2 12 C1.34 12 0.68 12 0 12 C0 10.02 0 8.04 0 6 C-0.66 6 -1.32 6 -2 6 C-1.125 1.125 -1.125 1.125 0 0 Z " fill="#030304" transform="translate(174,175)"/>
<path d="M0 0 C2.00800456 -0.28112064 4.01014051 -0.61067967 6 -1 C6 0.32 6 1.64 6 3 C0.53862186 3.09752461 -4.59255982 2.77249145 -10 2 C-10 1.34 -10 0.68 -10 0 C-2.25 -1.125 -2.25 -1.125 0 0 Z " fill="#C3C8C9" transform="translate(176,221)"/>
<path d="M0 0 C0.99 0 1.98 0 3 0 C3 4.62 3 9.24 3 14 C2.01 14 1.02 14 0 14 C0 9.38 0 4.76 0 0 Z " fill="#000101" transform="translate(299,173)"/>
<path d="M0 0 C0.99 0 1.98 0 3 0 C3 4.62 3 9.24 3 14 C2.01 14 1.02 14 0 14 C0 9.38 0 4.76 0 0 Z " fill="#000101" transform="translate(49,173)"/>
<path d="M0 0 C0.66 0.33 1.32 0.66 2 1 C0.125 5.875 0.125 5.875 -1 7 C-2.4887186 7.08669432 -3.981445 7.10703494 -5.47265625 7.09765625 C-6.37177734 7.09443359 -7.27089844 7.09121094 -8.19726562 7.08789062 C-9.14279297 7.07951172 -10.08832031 7.07113281 -11.0625 7.0625 C-12.01189453 7.05798828 -12.96128906 7.05347656 -13.93945312 7.04882812 C-16.29303065 7.0370011 -18.64648477 7.02052025 -21 7 C-21 6.67 -21 6.34 -21 6 C-15.39 6 -9.78 6 -4 6 C-3.34 4.68 -2.68 3.36 -2 2 C-1.34 1.34 -0.68 0.68 0 0 Z " fill="#3F9E3D" transform="translate(123,215)"/>
<path d="M0 0 C0.66 0 1.32 0 2 0 C2 4.62 2 9.24 2 14 C1.01 14 0.02 14 -1 14 C-1.02685938 11.85423363 -1.04633088 9.70837355 -1.0625 7.5625 C-1.07410156 6.36753906 -1.08570313 5.17257813 -1.09765625 3.94140625 C-1 1 -1 1 0 0 Z " fill="#040506" transform="translate(274,173)"/>
<path d="M0 0 C0.66 0 1.32 0 2 0 C2 4.62 2 9.24 2 14 C1.01 14 0.02 14 -1 14 C-1.02685938 11.85423363 -1.04633088 9.70837355 -1.0625 7.5625 C-1.07410156 6.36753906 -1.08570312 5.17257813 -1.09765625 3.94140625 C-1 1 -1 1 0 0 Z " fill="#000001" transform="translate(78,173)"/>
<path d="M0 0 C0.91007812 0.00902344 1.82015625 0.01804688 2.7578125 0.02734375 C3.45648438 0.03894531 4.15515625 0.05054688 4.875 0.0625 C2.1796875 3.046875 2.1796875 3.046875 -0.5625 3.1875 C-1.408125 3.14625 -2.25375 3.105 -3.125 3.0625 C-4.46832728 3.35294914 -5.80725804 3.67205794 -7.125 4.0625 C-6.795 5.3825 -6.465 6.7025 -6.125 8.0625 C-7.445 7.7325 -8.765 7.4025 -10.125 7.0625 C-7.36636155 1.16904513 -6.47876207 -0.08306105 0 0 Z " fill="#EA861C" transform="translate(60.125,207.9375)"/>
<path d="M0 0 C1.65 0 3.3 0 5 0 C5 2.97 5 5.94 5 9 C3.68 8.34 2.36 7.68 1 7 C0.25 3.375 0.25 3.375 0 0 Z " fill="#A0C3A5" transform="translate(202,202)"/>
<path d="M0 0 C0.99 0 1.98 0 3 0 C2.44687265 4.02992782 1.8441938 8.02022924 1 12 C0.01 12 -0.98 12 -2 12 C-3.40907283 9.18185434 -2.50872691 7.82722796 -1.5625 4.875 C-1.27503906 3.96492187 -0.98757812 3.05484375 -0.69140625 2.1171875 C-0.46324219 1.41851562 -0.23507813 0.71984375 0 0 Z " fill="#787A7C" transform="translate(168,202)"/>
<path d="M0 0 C0.99 0.33 1.98 0.66 3 1 C3 4.96 3 8.92 3 13 C2.01 13 1.02 13 0 13 C0 8.71 0 4.42 0 0 Z " fill="#000000" transform="translate(269,174)"/>
<path d="M0 0 C0.99 0.33 1.98 0.66 3 1 C3 4.96 3 8.92 3 13 C2.01 13 1.02 13 0 13 C0 8.71 0 4.42 0 0 Z " fill="#000000" transform="translate(82,174)"/>
<path d="M0 0 C1.65 0 3.3 0 5 0 C4.67 0.99 4.34 1.98 4 3 C5.32 2.67 6.64 2.34 8 2 C8 2.99 8 3.98 8 5 C4.7 4.67 1.4 4.34 -2 4 C-1.34 2.68 -0.68 1.36 0 0 Z M2 5 C2.99 5.495 2.99 5.495 4 6 C3.01 6.495 3.01 6.495 2 7 C2 6.34 2 5.68 2 5 Z " fill="#9CCC9B" transform="translate(118,211)"/>
<path d="M0 0 C0.33 0.66 0.66 1.32 1 2 C-2.22791555 4.1519437 -3.28400809 4.20086443 -7 4 C-7.33 5.32 -7.66 6.64 -8 8 C-9.32 8 -10.64 8 -12 8 C-12 7.34 -12 6.68 -12 6 C-10.68 6 -9.36 6 -8 6 C-8.33 4.68 -8.66 3.36 -9 2 C-5.86501708 0.14223235 -3.62528568 -0.20140476 0 0 Z " fill="#BC874B" transform="translate(62,210)"/>
<path d="M0 0 C1.65 0 3.3 0 5 0 C4.67 1.98 4.34 3.96 4 6 C2.35 6 0.7 6 -1 6 C-1 5.34 -1 4.68 -1 4 C-2.32 3.34 -3.64 2.68 -5 2 C-3.35 2 -1.7 2 0 2 C0 1.34 0 0.68 0 0 Z " fill="#53A850" transform="translate(123,208)"/>
<path d="M0 0 C4.62 0 9.24 0 14 0 C14 0.99 14 1.98 14 3 C11.03 3 8.06 3 5 3 C5 2.34 5 1.68 5 1 C3.35 1.33 1.7 1.66 0 2 C0 1.34 0 0.68 0 0 Z " fill="#E88F2F" transform="translate(36,208)"/>
<path d="M0 0 C0.99 0 1.98 0 3 0 C2.53199289 4.05606165 2.12046792 7.46588679 0 11 C-0.66 10.34 -1.32 9.68 -2 9 C-1.45652174 2.91304348 -1.45652174 2.91304348 0 0 Z " fill="#7B7E80" transform="translate(153,202)"/>
<path d="M0 0 C0.33 0 0.66 0 1 0 C1 1.65 1 3.3 1 5 C2.98 5 4.96 5 7 5 C7.33 5.66 7.66 6.32 8 7 C4.37 7 0.74 7 -3 7 C-2.01 4.69 -1.02 2.38 0 0 Z " fill="#626669" transform="translate(152,210)"/>
<path d="M0 0 C2.31 0 4.62 0 7 0 C6.67 1.32 6.34 2.64 6 4 C3.36 4 0.72 4 -2 4 C-1.34 2.68 -0.68 1.36 0 0 Z " fill="#38A834" transform="translate(84,203)"/>
<path d="M0 0 C2.31 0 4.62 0 7 0 C7 0.33 7 0.66 7 1 C5.35 1 3.7 1 2 1 C2 1.66 2 2.32 2 3 C2.5775 2.79375 3.155 2.5875 3.75 2.375 C6 2 6 2 10 4 C5.71 4 1.42 4 -3 4 C-2.67 3.34 -2.34 2.68 -2 2 C-1.34 2 -0.68 2 0 2 C0 1.34 0 0.68 0 0 Z " fill="#D0DCDC" transform="translate(164,220)"/>
<path d="M0 0 C0.928125 0.0825 1.85625 0.165 2.8125 0.25 C2.1525 1.57 1.4925 2.89 0.8125 4.25 C-1.4975 4.25 -3.8075 4.25 -6.1875 4.25 C-4.36434338 1.00883268 -3.82500054 0.30000004 0 0 Z " fill="#39A831" transform="translate(99.1875,202.75)"/>
<path d="M0 0 C0 1.32 0 2.64 0 4 C-2.31 3.67 -4.62 3.34 -7 3 C-4.49955934 -0.00052879 -4.2621484 0 0 0 Z " fill="#B1B6B9" transform="translate(203,220)"/>
<path d="M0 0 C2.64 0.33 5.28 0.66 8 1 C7.67 1.66 7.34 2.32 7 3 C4.35139573 3.59355614 1.70802678 3.74209269 -1 4 C-0.67 2.68 -0.34 1.36 0 0 Z " fill="#B6BABB" transform="translate(148,220)"/>
<path d="M0 0 C2.64 0.33 5.28 0.66 8 1 C8 1.66 8 2.32 8 3 C5.03 3 2.06 3 -1 3 C-0.67 2.01 -0.34 1.02 0 0 Z " fill="#D3D4D3" transform="translate(31,219)"/>
<path d="M0 0 C1.65 0 3.3 0 5 0 C5 1.32 5 2.64 5 4 C4.01 4.33 3.02 4.66 2 5 C2 4.01 2 3.02 2 2 C1.34 2 0.68 2 0 2 C0 1.34 0 0.68 0 0 Z " fill="#DA862B" transform="translate(131,203)"/>
<path d="M0 0 C0.66 0.99 1.32 1.98 2 3 C-1.2830098 4.6415049 -4.42545033 3.51888624 -8 3 C-8 2.34 -8 1.68 -8 1 C-5.36 0.67 -2.72 0.34 0 0 Z " fill="#B4B5B6" transform="translate(174,220)"/>
<path d="M0 0 C0.99 0 1.98 0 3 0 C2.67 2.64 2.34 5.28 2 8 C1.01 7.34 0.02 6.68 -1 6 C-0.67 4.02 -0.34 2.04 0 0 Z " fill="#747779" transform="translate(194,202)"/>
<path d="M0 0 C0.99 0.33 1.98 0.66 3 1 C3 1.66 3 2.32 3 3 C2.01 3 1.02 3 0 3 C0.33 4.32 0.66 5.64 1 7 C-0.32 6.67 -1.64 6.34 -3 6 C-2.01 4.02 -1.02 2.04 0 0 Z " fill="#EA902B" transform="translate(53,209)"/>
<path d="M0 0 C0.66 0 1.32 0 2 0 C1.25 5.75 1.25 5.75 -1 8 C-1.625 5.125 -1.625 5.125 -2 2 C-1.34 1.34 -0.68 0.68 0 0 Z " fill="#CB8233" transform="translate(65,208)"/>
<path d="M0 0 C0.99 0 1.98 0 3 0 C2.67 2.64 2.34 5.28 2 8 C-0.1519437 4.77208445 -0.20086443 3.71599191 0 0 Z " fill="#D6D7D7" transform="translate(191,202)"/>
<path d="" fill="#111418" transform="translate(0,0)"/>
<path d="" fill="#111418" transform="translate(0,0)"/>
<path d="" fill="#111418" transform="translate(0,0)"/>
<path d="" fill="#111418" transform="translate(0,0)"/>
<path d="" fill="#111418" transform="translate(0,0)"/>
<path d="" fill="#111418" transform="translate(0,0)"/>
<path d="" fill="#111418" transform="translate(0,0)"/>
<path d="" fill="#111418" transform="translate(0,0)"/>
<path d="" fill="#111418" transform="translate(0,0)"/>
<path d="" fill="#111418" transform="translate(0,0)"/>
<path d="" fill="#111418" transform="translate(0,0)"/>
<path d="" fill="#111418" transform="translate(0,0)"/>
<path d="" fill="#111418" transform="translate(0,0)"/>
<path d="" fill="#111418" transform="translate(0,0)"/>
<path d="" fill="#111418" transform="translate(0,0)"/>
<path d="" fill="#111418" transform="translate(0,0)"/>
<path d="" fill="#111418" transform="translate(0,0)"/>
<path d="" fill="#111418" transform="translate(0,0)"/>
<path d="" fill="#111418" transform="translate(0,0)"/>
<path d="" fill="#111418" transform="translate(0,0)"/>
<path d="" fill="#111418" transform="translate(0,0)"/>
<path d="" fill="#111418" transform="translate(0,0)"/>
<path d="" fill="#111418" transform="translate(0,0)"/>
<path d="" fill="#111418" transform="translate(0,0)"/>
<path d="" fill="#111418" transform="translate(0,0)"/>
<path d="" fill="#111418" transform="translate(0,0)"/>
<path d="" fill="#111418" transform="translate(0,0)"/>
<path d="" fill="#111418" transform="translate(0,0)"/>
<path d="" fill="#111418" transform="translate(0,0)"/>
<path d="" fill="#111418" transform="translate(0,0)"/>
<path d="" fill="#111418" transform="translate(0,0)"/>
<path d="" fill="#111418" transform="translate(0,0)"/>
<path d="" fill="#111418" transform="translate(0,0)"/>
<path d="" fill="#111418" transform="translate(0,0)"/>
<path d="" fill="#111418" transform="translate(0,0)"/>
<path d="" fill="#111418" transform="translate(0,0)"/>
<path d="" fill="#111418" transform="translate(0,0)"/>
<path d="" fill="#111418" transform="translate(0,0)"/>
<path d="" fill="#111418" transform="translate(0,0)"/>
<path d="" fill="#111418" transform="translate(0,0)"/>
<path d="" fill="#111418" transform="translate(0,0)"/>
</svg>
