<?xml version="1.0" encoding="UTF-8"?>
<svg version="1.1" xmlns="http://www.w3.org/2000/svg" width="150" height="150">
<path d="M0 0 C0.85150635 0.2170459 1.7030127 0.4340918 2.58032227 0.65771484 C5.40086271 1.41711955 8.20014073 2.23026597 11 3.0625 C11.96550781 3.34416016 12.93101563 3.62582031 13.92578125 3.91601562 C16.28550816 4.60524279 18.64345085 5.30000011 21 6 C20.5120464 9.89893695 19.99368246 13.42538321 18.5 17.0625 C17.08254727 21.05590049 16.72005724 24.71056715 16.5 28.9375 C16.10749139 36.11040251 14.53488252 42.04582309 11.94921875 48.70703125 C9.57909231 54.86935999 8.28666158 60.39245056 8 67 C9.16015625 66.94779297 9.16015625 66.94779297 10.34375 66.89453125 C19.00075229 66.6695349 25.18507741 67.20827671 31.8125 73.0625 C39.07092109 81.25677955 38.42156909 91.82675028 38.28125 102.17089844 C38.24969213 104.52294565 38.24022877 106.87432309 38.234375 109.2265625 C38.22521864 110.72396657 38.21484728 112.22136382 38.203125 113.71875 C38.19887512 114.42076538 38.19462524 115.12278076 38.19024658 115.84606934 C38.11734284 120.76531432 38.11734284 120.76531432 37 123 C25.93465142 123.02312283 14.86930855 123.04091478 3.80394077 123.05181217 C-1.33359566 123.05704113 -6.47111563 123.06413901 -11.60864258 123.07543945 C-16.5623141 123.08626787 -21.51596974 123.09227674 -26.46965218 123.09487724 C-28.36397616 123.09673157 -30.25829924 123.10035234 -32.1526165 123.10573006 C-34.79634386 123.11293989 -37.44000471 123.11399097 -40.08374023 123.11352539 C-40.87495773 123.11712067 -41.66617523 123.12071594 -42.48136902 123.12442017 C-47.88594784 123.11405216 -47.88594784 123.11405216 -49 122 C-49.13849991 119.20917913 -49.21321027 116.44496372 -49.23828125 113.65234375 C-49.246353 112.80708633 -49.25442474 111.96182892 -49.26274109 111.09095764 C-49.27660488 109.29446475 -49.28731671 107.49794526 -49.29516602 105.70141602 C-49.31227769 102.97294706 -49.35612907 100.24572192 -49.40039062 97.51757812 C-49.41052631 95.77084224 -49.41903966 94.02409604 -49.42578125 92.27734375 C-49.44328934 91.4686937 -49.46079742 90.66004364 -49.47883606 89.82688904 C-49.45388659 83.20076526 -47.58896266 78.06183256 -43.2890625 72.9765625 C-35.8052138 66.8981314 -29.43934409 66.72506765 -20 67 C-20.35163385 60.29470619 -21.19085583 55.15850837 -24 49 C-24.85667999 45.87230984 -25.61459412 42.73208864 -26.3515625 39.57421875 C-26.89316809 37.03434034 -26.89316809 37.03434034 -28 35 C-28.13162043 32.87652366 -28.23037108 30.75096579 -28.3125 28.625 C-28.69122797 22.39203632 -29.98365789 17.22095456 -32.2578125 11.42578125 C-33 9 -33 9 -32 6 C-28.30682817 4.31503411 -24.33706335 3.36024475 -20.4375 2.25 C-19.36435547 1.92128906 -18.29121094 1.59257812 -17.18554688 1.25390625 C-11.06594293 -0.5223903 -6.20688717 -1.61258458 0 0 Z M-19.625 5.9375 C-20.53378906 6.22818359 -21.44257812 6.51886719 -22.37890625 6.81835938 C-24.59142735 7.5286951 -26.79656662 8.26195678 -29 9 C-27.68 12.96 -26.36 16.92 -25 21 C-12.46 21 0.08 21 13 21 C15.78296029 15.15078438 15.78296029 15.15078438 17 9 C14.54535367 8.17467847 12.0871744 7.36480638 9.625 6.5625 C8.94566406 6.33240234 8.26632813 6.10230469 7.56640625 5.86523438 C-2.27067765 2.69346433 -9.82072497 2.61857134 -19.625 5.9375 Z M-24 24 C-24 26.31 -24 28.62 -24 31 C-11.79 31 0.42 31 13 31 C13 28.69 13 26.38 13 24 C0.79 24 -11.42 24 -24 24 Z M-24 34 C-19.21058526 39.98676842 -15.95251179 41.43333329 -8.5078125 42.28515625 C-1.53548838 42.53494356 4.5931442 41.0773511 10.5625 37.4375 C11.036875 36.963125 11.51125 36.48875 12 36 C12 35.34 12 34.68 12 34 C0.12 34 -11.76 34 -24 34 Z M-21 42 C-20.51365981 49.45721628 -17.74205813 56.1173235 -12.5625 61.5625 C-9.54381999 63.25590586 -7.46887541 63.92773176 -4 64 C0.38202728 62.18306186 3.6478642 59.09332723 6 55 C7.56723182 50.72573141 8.83182999 46.39858427 10 42 C8.53046875 42.48726562 8.53046875 42.48726562 7.03125 42.984375 C2.82075119 44.18313875 -1.14533701 44.29674057 -5.5 44.25 C-6.22058594 44.25773437 -6.94117188 44.26546875 -7.68359375 44.2734375 C-12.47885624 44.25609478 -16.44782059 43.50940686 -21 42 Z M-16 63 C-16.71730949 70.02905631 -16.71730949 70.02905631 -13.5625 76.0625 C-12.716875 76.701875 -11.87125 77.34125 -11 78 C-10.67 78.33 -10.34 78.66 -10 79 C-5.29828209 79.4781408 -2.32594144 79.72931068 1.4375 76.6875 C4.60320017 73.36737543 5.13492517 71.23043513 5.0625 66.8125 C5.041875 65.554375 5.02125 64.29625 5 63 C4.01 63.495 3.02 63.99 2 64.5 C-2.25204621 66.30389839 -5.39276325 66.43878445 -10 66 C-13.5 64.5 -13.5 64.5 -16 63 Z M-41 76 C-45.59316088 81.9586952 -46.15173544 86.26241415 -46.09765625 93.609375 C-46.0962413 94.33618469 -46.09482635 95.06299438 -46.09336853 95.81182861 C-46.08778792 98.12459494 -46.07523904 100.43726312 -46.0625 102.75 C-46.05748249 104.32161318 -46.05292002 105.89322789 -46.04882812 107.46484375 C-46.03782485 111.30993343 -46.02057361 115.1549501 -46 119 C-42.37 119 -38.74 119 -35 119 C-34.67 108.11 -34.34 97.22 -34 86 C-33.67 86 -33.34 86 -33 86 C-32.67 96.89 -32.34 107.78 -32 119 C-24.08 119 -16.16 119 -8 119 C-7.8159244 113.96093046 -7.65691859 108.93355768 -7.56054688 103.89379883 C-7.52038283 102.18148246 -7.46583602 100.46943936 -7.39648438 98.75805664 C-6.55044461 89.27903327 -6.55044461 89.27903327 -9.72851562 80.89135742 C-11.77906376 79.68159932 -13.78463518 78.8538151 -16 78 C-17.93687634 75.38247608 -18.75718779 73.05524668 -20 70 C-28.01307926 69.6661217 -34.62451268 70.78369219 -41 76 Z M8 70 C7.608125 71.0725 7.21625 72.145 6.8125 73.25 C4.57175063 78.48193838 1.00249755 80.49875123 -4 83 C-4 94.88 -4 106.76 -4 119 C3.92 119 11.84 119 20 119 C20 108.11 20 97.22 20 86 C21.32 86 22.64 86 24 86 C24 96.89 24 107.78 24 119 C27.3 119 30.6 119 34 119 C34.07443657 114.12535909 34.12873667 109.25105272 34.16479492 104.37597656 C34.17983465 102.71934237 34.20027177 101.06274769 34.22631836 99.40625 C34.26291515 97.0181297 34.27977439 94.63053812 34.29296875 92.2421875 C34.30845261 91.50757294 34.32393646 90.77295837 34.33988953 90.01608276 C34.34169867 84.42502623 33.07018495 80.45277609 29.45703125 76.171875 C22.79298641 70.41008801 16.60313743 69.69274509 8 70 Z " fill="#CE9038" transform="translate(81,14)"/>
<path d="M0 0 C2.375 0.1875 2.375 0.1875 5 1 C6.4375 3.375 6.4375 3.375 7 6 C6.01 7.485 6.01 7.485 5 9 C1.875 9.1875 1.875 9.1875 -1 9 C-2.1875 6.75 -2.1875 6.75 -3 4 C-1.625 1.6875 -1.625 1.6875 0 0 Z M1 4 C1.33 4.66 1.66 5.32 2 6 C2.33 5.34 2.66 4.68 3 4 C2.34 4 1.68 4 1 4 Z " fill="#CB8E37" transform="translate(82,122)"/>
<path d="M0 0 C3.125 -0.1875 3.125 -0.1875 6 0 C7.1875 2.25 7.1875 2.25 8 5 C6.625 7.3125 6.625 7.3125 5 9 C2.625 8.8125 2.625 8.8125 0 8 C-1.4375 5.625 -1.4375 5.625 -2 3 C-1.34 2.01 -0.68 1.02 0 0 Z M2 3 C2 3.66 2 4.32 2 5 C2.66 5 3.32 5 4 5 C4 4.34 4 3.68 4 3 C3.34 3 2.68 3 2 3 Z " fill="#CE9038" transform="translate(81,99)"/>
<path d="M0 0 C2.4375 0.75 2.4375 0.75 5 2 C5.9375 3.9375 5.9375 3.9375 6 6 C5.01 7.485 5.01 7.485 4 9 C0.875 9.1875 0.875 9.1875 -2 9 C-2.66 7.35 -3.32 5.7 -4 4 C-2.68 2.68 -1.36 1.36 0 0 Z M0 4 C0 4.66 0 5.32 0 6 C0.66 6 1.32 6 2 6 C2 5.34 2 4.68 2 4 C1.34 4 0.68 4 0 4 Z " fill="#D09239" transform="translate(83,110)"/>
<path d="M0 0 C2.31 0 4.62 0 7 0 C7 1.32 7 2.64 7 4 C4.36 4 1.72 4 -1 4 C-0.67 2.68 -0.34 1.36 0 0 Z " fill="#C18734" transform="translate(63,101)"/>
<path d="M0 0 C2.31 0 4.62 0 7 0 C7 1.32 7 2.64 7 4 C4.69 4 2.38 4 0 4 C0 2.68 0 1.36 0 0 Z " fill="#B37D31" transform="translate(63,113)"/>
<path d="M0 0 C2.97 0 5.94 0 9 0 C9 0.99 9 1.98 9 3 C6.03 3 3.06 3 0 3 C0 2.01 0 1.02 0 0 Z " fill="#DA983B" transform="translate(62,125)"/>
</svg>
