<svg xmlns="http://www.w3.org/2000/svg" viewBox="0 0 500 500"><g id="freepik--background-simple--inject-19"><path d="M487.66,358.61c4.24-24.52,4.55-50.11,3.72-73.24-2.06-57.88-19.58-118.47-66.48-156l-.26-.21c-32.26-25.66-69.39-50.41-111.08-58.41-45.61-8.75-91.94,6.1-132,27.44-35.46,18.92-63.77,49.17-79,86.49C80.4,239.24,6.71,311.92,16.8,370.47s43.41,82.78,95.9,93.88,88.84-8.07,148.4-15.14c62.7-7.44,134.67,34.54,189-12.43C473,417,482.67,387.54,487.66,358.61Z" style="fill:#FFA31A"></path><path d="M487.66,358.61c4.24-24.52,4.55-50.11,3.72-73.24-2.06-57.88-19.58-118.47-66.48-156l-.26-.21c-32.26-25.66-69.39-50.41-111.08-58.41-45.61-8.75-91.94,6.1-132,27.44-35.46,18.92-63.77,49.17-79,86.49C80.4,239.24,6.71,311.92,16.8,370.47s43.41,82.78,95.9,93.88,88.84-8.07,148.4-15.14c62.7-7.44,134.67,34.54,189-12.43C473,417,482.67,387.54,487.66,358.61Z" style="fill:#fff;opacity:0.8"></path></g><g id="freepik--Clouds--inject-19"><path d="M331.08,49.8c-.21-.67-.43-1.33-.67-2-8.84-24.57-50-26.27-50,3.94,0,5.81-14,0-19.19,7.56s.58,12.22-6.4,14.54-7.56-3.49-16.29-2.91S231,79.66,228.1,82s-2.91,1.16-9.31,1.74S211.23,89,211.23,89h153s5.82-17.45-4.65-23.85S349.1,67.44,341,64C334.22,61.07,333,55.6,331.08,49.8Z" style="fill:none;stroke:#b2b2b2;stroke-linecap:round;stroke-linejoin:round"></path><path d="M336.37,82.6s3.17-9.79-4.61-17-15.84-3.17-18.15,0-2.3,9.22-6.05,9.8-2.88-6.34-10.95-4.61-4.89,9.8-8.64,11.52-3.74-4.61-8.93-2.59-4.9,5.76-4.9,5.76" style="fill:none;stroke:#b2b2b2;stroke-linecap:round;stroke-linejoin:round"></path><path d="M295,63a14.58,14.58,0,0,0-14.75-1.28c-8.34,3.85-4.49,11.86-8.34,13.79s-5.78-.32-10.59,1.92-4.49,5.46-4.49,5.46" style="fill:none;stroke:#b2b2b2;stroke-linecap:round;stroke-linejoin:round"></path><path d="M96.62,76c-.13-.38-.25-.77-.39-1.15-5.1-14.18-28.82-15.15-28.82,2.27,0,3.36-8,0-11.07,4.36s.33,7.05-3.7,8.39-4.36-2-9.39-1.68-4.36,5-6,6.38-1.68.67-5.37,1-4.36,3-4.36,3h88.25s3.36-10.07-2.68-13.76-6,1.34-10.74-.67C98.43,82.51,97.7,79.36,96.62,76Z" style="fill:none;stroke:#b2b2b2;stroke-linecap:round;stroke-linejoin:round"></path><path d="M99.67,94.94A9.86,9.86,0,0,0,97,85.13c-4.49-4.16-9.14-1.83-10.47,0s-1.33,5.32-3.49,5.65-1.66-3.66-6.32-2.66-2.82,5.65-5,6.65-2.16-2.66-5.16-1.5-2.82,3.33-2.82,3.33" style="fill:none;stroke:#b2b2b2;stroke-linecap:round;stroke-linejoin:round"></path><path d="M75.8,83.64a8.42,8.42,0,0,0-8.51-.74c-4.82,2.22-2.6,6.85-4.82,8s-3.33-.18-6.1,1.11-2.59,3.15-2.59,3.15" style="fill:none;stroke:#b2b2b2;stroke-linecap:round;stroke-linejoin:round"></path><path d="M470.13,127.49c-.12-.38-.25-.76-.39-1.15-5.1-14.17-28.82-15.15-28.82,2.27,0,3.36-8.05,0-11.07,4.37s.33,7-3.69,8.39-4.37-2-9.4-1.68-4.36,5-6,6.37-1.68.68-5.37,1-4.36,3-4.36,3h88.26s3.35-10.07-2.69-13.76-6,1.34-10.74-.67C471.94,134,471.21,130.84,470.13,127.49Z" style="fill:none;stroke:#b2b2b2;stroke-linecap:round;stroke-linejoin:round"></path><path d="M473.18,146.42a9.86,9.86,0,0,0-2.66-9.81c-4.49-4.15-9.14-1.83-10.47,0s-1.33,5.32-3.49,5.65-1.66-3.65-6.32-2.66-2.82,5.66-5,6.65-2.16-2.66-5.15-1.49-2.83,3.32-2.83,3.32" style="fill:none;stroke:#b2b2b2;stroke-linecap:round;stroke-linejoin:round"></path><path d="M449.31,135.13a8.42,8.42,0,0,0-8.51-.74c-4.82,2.22-2.59,6.84-4.82,8s-3.33-.18-6.1,1.12-2.59,3.14-2.59,3.14" style="fill:none;stroke:#b2b2b2;stroke-linecap:round;stroke-linejoin:round"></path></g><g id="freepik--Trees--inject-19"><path d="M111.29,328.49c0,23.79-16.34,33-36.51,33s-36.51-9.17-36.51-33,16.35-77.14,36.51-77.14S111.29,304.71,111.29,328.49Z" style="fill:#FFA31A"></path><path d="M111.29,328.49c0,23.79-16.34,33-36.51,33s-36.51-9.17-36.51-33,16.35-77.14,36.51-77.14S111.29,304.71,111.29,328.49Z" style="fill:#fff;opacity:0.6000000000000001"></path><polygon points="60.07 334.13 71.01 339.14 68.93 453.57 76.81 453.57 75.34 348.61 89.69 340.81 96.98 344.43 91.9 339.98 99.33 334.69 80.55 343.32 83.24 337.75 77.77 343.87 75.55 344.15 75.18 338.58 95.92 313.54 85.77 323 86.95 310.19 92.56 295.72 86.36 307.97 86.12 293.77 83.83 323.56 79.48 329.4 78.8 321.88 76.44 331.07 74.56 334.97 75.73 304.63 82.21 292.66 75.37 299.62 74.02 285.42 72.77 311.03 58.83 292.94 71.98 313.54 71.87 323.56 62.32 318.55 63.02 310.47 60.63 317.43 51.08 312.14 71.64 326.89 71.23 335.8 46.04 327.17 58.11 333.3 44.83 338.31 60.07 334.13" style="fill:#b2b2b2"></polygon><path d="M475.51,328.49c0,23.79-16.34,33-36.51,33s-36.51-9.17-36.51-33,16.35-77.14,36.51-77.14S475.51,304.71,475.51,328.49Z" style="fill:#FFA31A"></path><path d="M475.51,328.49c0,23.79-16.34,33-36.51,33s-36.51-9.17-36.51-33,16.35-77.14,36.51-77.14S475.51,304.71,475.51,328.49Z" style="fill:#fff;opacity:0.6000000000000001"></path><polygon points="424.3 334.13 435.23 339.14 433.15 453.57 441.03 453.57 439.56 348.61 453.91 340.81 461.21 344.43 456.12 339.98 463.55 334.69 444.77 343.32 447.46 337.75 441.99 343.87 439.77 344.15 439.4 338.58 460.14 313.54 450 323 451.17 310.19 456.78 295.72 450.58 307.97 450.35 293.77 448.06 323.56 443.7 329.4 443.02 321.88 440.67 331.07 438.78 334.97 439.95 304.63 446.43 292.66 439.59 299.62 438.24 285.42 436.99 311.03 423.05 292.94 436.2 313.54 436.09 323.56 426.54 318.55 427.24 310.47 424.85 317.43 415.3 312.14 435.87 326.89 435.46 335.8 410.26 327.17 422.33 333.3 409.06 338.31 424.3 334.13" style="fill:#b2b2b2"></polygon><path d="M465.14,205c0,47.28-32.49,65.5-72.57,65.5S320,252.24,320,205,352.49,51.63,392.57,51.63,465.14,157.69,465.14,205Z" style="fill:#FFA31A"></path><path d="M465.14,205c0,47.28-32.49,65.5-72.57,65.5S320,252.24,320,205,352.49,51.63,392.57,51.63,465.14,157.69,465.14,205Z" style="fill:#fff;opacity:0.5"></path><polygon points="363.34 216.17 385.08 226.13 380.95 453.57 396.6 453.57 393.69 244.94 422.2 229.45 436.71 236.64 426.6 227.79 441.36 217.28 404.03 234.43 409.38 223.36 398.52 235.53 394.1 236.09 393.36 225.02 434.58 175.23 414.42 194.04 416.77 168.59 427.91 139.83 415.59 164.17 415.12 135.96 410.57 195.15 401.91 206.77 400.56 191.83 395.88 210.09 392.14 217.83 394.45 157.53 407.34 133.74 393.74 147.57 391.06 119.36 388.58 170.25 360.88 134.29 387 175.23 386.78 195.15 367.81 185.19 369.2 169.15 364.45 182.98 345.47 172.47 386.34 201.79 385.53 219.49 335.45 202.34 359.44 214.51 333.05 224.47 363.34 216.17" style="fill:#b2b2b2"></polygon><path d="M359.45,269.8c0,34.94-24,48.42-53.64,48.42s-53.65-13.48-53.65-48.42,24-113.34,53.65-113.34S359.45,234.85,359.45,269.8Z" style="fill:#FFA31A"></path><path d="M359.45,269.8c0,34.94-24,48.42-53.64,48.42s-53.65-13.48-53.65-48.42,24-113.34,53.65-113.34S359.45,234.85,359.45,269.8Z" style="fill:#fff;opacity:0.5"></path><polygon points="284.2 278.08 300.27 285.45 297.22 453.57 308.79 453.57 306.64 299.35 327.71 287.9 338.43 293.22 330.96 286.67 341.88 278.9 314.28 291.58 318.23 283.4 310.2 292.4 306.94 292.81 306.39 284.63 336.86 247.82 321.96 261.73 323.69 242.92 331.93 221.65 322.82 239.65 322.48 218.79 319.11 262.55 312.71 271.13 311.71 260.09 308.25 273.59 305.49 279.31 307.2 234.74 316.72 217.15 306.67 227.38 304.69 206.52 302.86 244.14 282.38 217.56 301.69 247.82 301.53 262.55 287.5 255.18 288.53 243.32 285.02 253.55 270.99 245.78 301.2 267.45 300.6 280.54 263.58 267.86 281.32 276.86 261.81 284.22 284.2 278.08" style="fill:#b2b2b2"></polygon><path d="M249.14,205c0,47.28-32.49,65.5-72.57,65.5S104,252.24,104,205,136.49,51.63,176.57,51.63,249.14,157.69,249.14,205Z" style="fill:#FFA31A"></path><path d="M249.14,205c0,47.28-32.49,65.5-72.57,65.5S104,252.24,104,205,136.49,51.63,176.57,51.63,249.14,157.69,249.14,205Z" style="fill:#fff;opacity:0.5"></path><polygon points="147.34 216.17 169.08 226.13 164.95 453.57 180.6 453.57 177.69 244.94 206.2 229.45 220.71 236.64 210.6 227.79 225.36 217.28 188.03 234.43 193.38 223.36 182.52 235.53 178.1 236.09 177.36 225.02 218.58 175.23 198.42 194.04 200.77 168.59 211.91 139.83 199.59 164.17 199.12 135.96 194.57 195.15 185.91 206.77 184.56 191.83 179.88 210.09 176.14 217.83 178.46 157.53 191.34 133.74 177.74 147.57 175.06 119.36 172.58 170.25 144.88 134.29 171 175.23 170.78 195.15 151.81 185.19 153.2 169.15 148.45 182.98 129.47 172.47 170.34 201.79 169.53 219.49 119.45 202.34 143.44 214.51 117.05 224.47 147.34 216.17" style="fill:#b2b2b2"></polygon></g><g id="freepik--Car--inject-19"><path d="M274.36,433.17H213.5s1.73-29.08,12.56-41.64,27.3-13.86,40.73-6.5,14.3,40.29,14.3,40.29h104s9.53-37.26,31.19-39.86,26.87,35.1,26.87,35.1l-3.74,12.61Z" style="fill:#263238;stroke:#263238;stroke-linecap:round;stroke-linejoin:round"></path><path d="M421.63,424.1A35.94,35.94,0,0,0,417,406V395H404.64c-11.8,0-21.36,13-21.36,29.07s9.56,29.07,21.36,29.07H417v-11A35.93,35.93,0,0,0,421.63,424.1Z" style="fill:#263238;stroke:#263238;stroke-linecap:round;stroke-linejoin:round"></path><ellipse cx="417.89" cy="424.15" rx="17.13" ry="29.02" style="fill:#263238;stroke:#263238;stroke-linecap:round;stroke-linejoin:round"></ellipse><ellipse cx="417.89" cy="424.15" rx="13.17" ry="22.31" style="fill:#fff;stroke:#263238;stroke-linecap:round;stroke-linejoin:round"></ellipse><path d="M252.71,423.54a36.81,36.81,0,0,0-4.71-18.4V393.92H230.94c-12,0-21.76,13.26-21.76,29.62s9.74,29.63,21.76,29.63H248V441.94A36.75,36.75,0,0,0,252.71,423.54Z" style="fill:#263238;stroke:#263238;stroke-linecap:round;stroke-linejoin:round"></path><ellipse cx="248" cy="423.54" rx="21.77" ry="29.63" style="fill:#263238;stroke:#263238;stroke-linecap:round;stroke-linejoin:round"></ellipse><ellipse cx="248" cy="423.54" rx="16.73" ry="22.77" style="fill:#fff;stroke:#263238;stroke-linecap:round;stroke-linejoin:round"></ellipse><path d="M347.45,395.13a8.64,8.64,0,0,0-.88,0V395H334.2c-11.79,0-21.36,13-21.36,29.07s9.57,29.07,21.36,29.07h12.37v0a8.64,8.64,0,0,0,.88,0c9.46,0,17.13-13,17.13-29S356.91,395.13,347.45,395.13Z" style="fill:#263238;stroke:#263238;stroke-linecap:round;stroke-linejoin:round"></path><path d="M150.87,393.92H133.82c-12,0-21.77,13.26-21.77,29.62s9.75,29.63,21.77,29.63h17.05c12,0,21.77-13.27,21.77-29.63S162.89,393.92,150.87,393.92Z" style="fill:#263238;stroke:#263238;stroke-linecap:round;stroke-linejoin:round"></path><path d="M456,402c-.81-4-.4-4.43-4-8.87s-4.44-7.25-4.44-7.25,2-9.27,2-12.1-4.43-2-4.43-2-1.21-4.43-4.44-6.05-6-2.42-13.7-6.85-25.14-16.11-30.38-18.53S384.52,329.13,349.17,327c-25.25-1.52-62.48-1.65-62.48-1.65a249.35,249.35,0,0,0-26.6.8c-7,.66-13.22.2-30.51,4.52-10,2.5-66,26.9-66,26.9s-50.84,14.2-56.34,18.33-6.41,11.91-6.41,11.91-6.87,5-6.41,7.78a31.4,31.4,0,0,1,.45,4.58V436.5h5.68l3.89-2.22h65.06l5,2.22h48.32c-.16-1.83-.25-7-.25-8.93,0-22.81,11.64-41.31,26-41.31s26,18.5,26,41.31c0,1.9-.09,3.77-.24,5.6H395.91c0-.92-.07-1.84-.07-2.77,0-21.26,9.77-38.5,21.81-38.5s21.8,17.24,21.8,38.5c0,.93,0,1.85-.06,2.77h12.79c3.87-2.27,1-7.41,1-7.41S456.78,406,456,402Z" style="fill:#fff;stroke:#263238;stroke-linecap:round;stroke-linejoin:round"></path><path d="M291.53,345.51s-25,16.57-24.59,17.77,14.51,3.23,18.14,3.23H397.94s13.7-2.82,15.72-5.24-28.22-21.36-39.1-25-32.1-3.37-53.61-1.65C304.88,335.91,291.53,345.51,291.53,345.51Z" style="fill:#263238;stroke:#263238;stroke-linecap:round;stroke-linejoin:round"></path><rect x="336.27" y="374.97" width="15.72" height="4.43" rx="1.99" style="fill:none;stroke:#263238;stroke-linecap:round;stroke-linejoin:round"></rect><rect x="386.45" y="374.97" width="15.72" height="4.43" rx="1.99" style="fill:none;stroke:#263238;stroke-linecap:round;stroke-linejoin:round"></rect><polyline points="350.78 367.72 355.62 374.97 355.21 418.5 357.63 423.34 355.21 428.98 358.44 432.61" style="fill:none;stroke:#263238;stroke-linecap:round;stroke-linejoin:round"></polyline><path d="M405.6,365.7l3.22,3.63-6.05,27.41-12.89,30.63s-8.07.81-9.27.81-93.11.8-93.11.8-1.21-2-2.42-4.43-5.24-35.87-5.24-43.53a32.15,32.15,0,0,0-3.63-14.11" style="fill:none;stroke:#263238;stroke-linecap:round;stroke-linejoin:round"></path><path d="M164.24,358.45h76.91s11.28.8,20.55-5.24,14.91-8.1,23.38-13.34S296.77,333,296.77,333s-28.62-2.42-45.15-2.42-23.78,2-23.78,2Z" style="fill:#263238;stroke:#263238;stroke-linecap:round;stroke-linejoin:round"></path><path d="M225.15,373.86s9.55-1.3,11.16-2.11S246,361.67,246,361.67" style="fill:none;stroke:#263238;stroke-linecap:round;stroke-linejoin:round"></path><path d="M187,379.1l38.2-5.24s-27.21,16.47-31.21,16.47-33.7,1-33.7,1l7.49-6.49,8.74-4.49Z" style="fill:#666;stroke:#263238;stroke-linecap:round;stroke-linejoin:round"></path><path d="M220,377l-15.4,1.92-11.13,7.42-29.6,1.93-3.59,3.11s29.71-1,33.7-1C196.83,390.33,211.86,381.72,220,377Z" style="fill:#fff;stroke:#263238;stroke-linecap:round;stroke-linejoin:round"></path><path d="M107.32,384.09l-2,6.49-4.47-2.76a11.38,11.38,0,0,1,3.22-7.72Z" style="fill:#666;stroke:#263238;stroke-linecap:round;stroke-linejoin:round"></path><path d="M105.84,388.9,101,386a10.86,10.86,0,0,0-.19,1.87l4.47,2.76Z" style="fill:#fff;stroke:#263238;stroke-linecap:round;stroke-linejoin:round"></path><path d="M104.07,380.1s3.25,4.74,12.74,7.24l2,8.24h7l6.49-7.24s47.68-5.25,48.93-5.75A66.26,66.26,0,0,0,187,379.1s-52.67,3.74-54.17,3.74-15-.75-15-.75l-12.23-4.24Z" style="fill:#263238;stroke:#263238;stroke-linecap:round;stroke-linejoin:round"></path><path d="M195.52,423.47c0,2.07-2.18,3.74-4.87,3.74s-4.87-1.67-4.87-3.74,2.18-3.75,4.87-3.75S195.52,421.4,195.52,423.47Z" style="fill:#263238;stroke:#263238;stroke-linecap:round;stroke-linejoin:round"></path><path d="M449.53,373.76c0-2.82-2.62-1.88-4.43-2l-8.07,2-1.61,5.65,12.09,6.45S449.53,376.59,449.53,373.76Z" style="fill:#263238;stroke:#263238;stroke-linecap:round;stroke-linejoin:round"></path><path d="M422.52,368.66c6.32-.18,11.85-.24,16.33-.17" style="fill:none;stroke:#263238;stroke-linecap:round;stroke-linejoin:round"></path><path d="M300.17,376.32c35.23-2.77,82-6.16,114.17-7.39" style="fill:none;stroke:#263238;stroke-linecap:round;stroke-linejoin:round"></path><path d="M260.1,379.6c7.5-.64,19.27-1.62,33.38-2.75" style="fill:none;stroke:#263238;stroke-linecap:round;stroke-linejoin:round"></path><path d="M251.27,380.36l5.27-.46" style="fill:none;stroke:#263238;stroke-linecap:round;stroke-linejoin:round"></path><polygon points="103.83 396.32 148.51 396.32 159 402.07 172.97 424.78 159.24 428.78 98.33 428.78 95.59 421.79 97.08 400.32 103.83 396.32" style="fill:#263238;stroke:#263238;stroke-linecap:round;stroke-linejoin:round"></polygon><rect x="104.07" y="401.82" width="33.95" height="14.23" style="fill:#fff"></rect><line x1="157.8" y1="404.14" x2="142.65" y2="404.14" style="fill:none;stroke:#737373;stroke-linecap:round;stroke-linejoin:round"></line><line x1="161.79" y1="409.72" x2="143.44" y2="409.72" style="fill:none;stroke:#737373;stroke-linecap:round;stroke-linejoin:round"></line><line x1="165.77" y1="415.3" x2="143.44" y2="415.3" style="fill:none;stroke:#737373;stroke-linecap:round;stroke-linejoin:round"></line><line x1="169.76" y1="420.88" x2="121.91" y2="420.88" style="fill:none;stroke:#737373;stroke-linecap:round;stroke-linejoin:round"></line><line x1="169.76" y1="425.9" x2="98.61" y2="425.9" style="fill:none;stroke:#737373;stroke-linecap:round;stroke-linejoin:round"></line><path d="M310.82,351.35H292.23c-4.64,2.46-8.33,5-8.16,6.95.45,5,2.23,6.95,4.45,6.95h18.54s8.15-4.63,7.41-9.27C314.19,354.23,312.64,352.65,310.82,351.35Z" style="fill:#fff;stroke:#263238;stroke-linecap:round;stroke-linejoin:round"></path><line x1="284.07" y1="358.3" x2="307.98" y2="358.3" style="fill:#fff;stroke:#263238;stroke-linecap:round;stroke-linejoin:round"></line><path d="M288.52,365.25l1.11,6,1.62,1.6,5.06-1.05s-2.23.56-1.67-6.67Z" style="fill:#263238;stroke:#263238;stroke-linecap:round;stroke-linejoin:round"></path><line x1="166.2" y1="403.27" x2="220.52" y2="403.27" style="fill:#fff;stroke:#263238;stroke-linecap:round;stroke-linejoin:round"></line><polygon points="173.72 429.03 195.44 429.03 199.07 426.46 192.9 402.35 175.22 394.08 191.98 404.65 197.19 423.78 192.32 427.53 173.72 429.03" style="fill:#263238;stroke:#263238;stroke-linecap:round;stroke-linejoin:round"></polygon><line x1="459.66" y1="332.53" x2="464.61" y2="332.53" style="fill:none;stroke:#263238;stroke-linecap:round;stroke-linejoin:round"></line><line x1="391.94" y1="332.53" x2="456.34" y2="332.53" style="fill:none;stroke:#263238;stroke-linecap:round;stroke-linejoin:round"></line><line x1="450.06" y1="354.33" x2="454.61" y2="354.33" style="fill:none;stroke:#263238;stroke-linecap:round;stroke-linejoin:round"></line><line x1="431.91" y1="354.33" x2="447.48" y2="354.33" style="fill:none;stroke:#263238;stroke-linecap:round;stroke-linejoin:round"></line><line x1="464.83" y1="432.44" x2="460.06" y2="432.44" style="fill:none;stroke:#263238;stroke-linecap:round;stroke-linejoin:round"></line><line x1="470.96" y1="432.44" x2="467.42" y2="432.44" style="fill:none;stroke:#263238;stroke-linecap:round;stroke-linejoin:round"></line><line x1="302.35" y1="441.52" x2="307.48" y2="441.52" style="fill:none;stroke:#263238;stroke-linecap:round;stroke-linejoin:round"></line><line x1="275.69" y1="441.52" x2="297.55" y2="441.52" style="fill:none;stroke:#263238;stroke-linecap:round;stroke-linejoin:round"></line></g><g id="freepik--Floor--inject-19"><line x1="20.95" y1="453.57" x2="482" y2="453.57" style="fill:#fff;stroke:#263238;stroke-linecap:round;stroke-linejoin:round"></line></g></svg>
